<svg width="16" height="16" viewBox="0 0 16 16" xmlns="http://www.w3.org/2000/svg"><title>bs</title><path d="M16 7.994c-.005-.101-.158-.6-.37-1.12-.218-.534-.587-1.309-1.098-1.956a7.308 7.308 0 0 0-2.45-2.015C10.909 2.303 9.533 2 7.998 2c-1.533 0-2.908.304-4.083.904a7.356 7.356 0 0 0-2.45 2.014C.954 5.567.587 6.342.37 6.877.156 7.396.005 7.895 0 7.995v.008c.005.1.158.6.37 1.12.22.535.587 1.31 1.096 1.955a7.308 7.308 0 0 0 2.45 2.016c1.182.602 2.555.906 4.083.906 1.53 0 2.903-.304 4.084-.906a7.35 7.35 0 0 0 2.45-2.014c.51-.647.879-1.422 1.097-1.957.212-.519.365-1.018.37-1.118V8v-.007zm-1.315.003c-.101.314-.493 1.445-1.142 2.267l-.008.009a6.07 6.07 0 0 1-2.026 1.668c-1.002.51-2.186.77-3.517.77-1.333 0-2.515-.26-3.517-.77a6.042 6.042 0 0 1-2.025-1.67c-.653-.825-1.046-1.96-1.147-2.276.1-.313.494-1.446 1.147-2.275a6.078 6.078 0 0 1 2.027-1.668c1.003-.51 2.187-.768 3.52-.768 1.339 0 2.52.258 3.515.768.79.402 1.471.964 2.026 1.67.652.829 1.046 1.962 1.147 2.275zM7.997 4.861c-1.694 0-3.071 1.401-3.071 3.122 0 1.72 1.379 3.122 3.071 3.122 1.693 0 3.072-1.402 3.072-3.122S9.692 4.86 7.997 4.86zm1.808 3.122c0 .49-.188.951-.53 1.299a1.78 1.78 0 0 1-1.278.538 1.78 1.78 0 0 1-1.278-.538 1.84 1.84 0 0 1-.53-1.3c0-.49.188-.95.53-1.298a1.78 1.78 0 0 1 1.278-.539c.482 0 .936.191 1.278.539.342.348.53.809.53 1.299z" fill="#FFF"/></svg>