<svg width="16" height="16" viewBox="0 0 16 16" xmlns="http://www.w3.org/2000/svg"><title>del_list</title><path d="M13.837 3.172a.587.587 0 0 0-.41-.166H11v-.901C11 1.495 10.606 1 10 1H5c-.606 0-1 .495-1 1.105v.901H1.558C1.25 3.006 1 3.19 1 3.5s.25.5.558.5H2v10c0 .61.394 1 1 1h9.008c.606 0 .992-.39.992-1V4h.427c.306 0 .573-.19.573-.5 0-.149-.057-.22-.163-.328zM5 2h5v1.016H5V2zM3 14V4h9.006v10H3zm6.5-8c-.276 0-.5.238-.5.532v4.936c0 .294.224.532.5.532s.5-.238.5-.532V6.532C10 6.238 9.776 6 9.5 6zm-2 0c-.276 0-.5.238-.5.532v4.936c0 .294.224.532.5.532s.5-.238.5-.532V6.532C8 6.238 7.776 6 7.5 6zm-2 0c-.276 0-.5.238-.5.532v4.936c0 .294.224.532.5.532s.5-.238.5-.532V6.532C6 6.238 5.776 6 5.5 6z" fill="#FFF"/></svg>