<svg width="16" height="16" viewBox="0 0 16 16" xmlns="http://www.w3.org/2000/svg"><title>edit_list</title><path d="M14.436 14H1.562c-.31 0-.562.223-.562.5 0 .275.252.498.562.498h12.874c.311 0 .563-.223.563-.499S14.747 14 14.436 14zm-9.743-2.04l3.655-1.548a.514.514 0 0 0 .158-.106l6.165-6.166c.436-.436.44-1.147.003-1.583l-1.23-1.231a1.121 1.121 0 0 0-1.584.003L5.695 7.495a.497.497 0 0 0-.105.158l-1.55 3.654a.492.492 0 0 0 .106.545.49.49 0 0 0 .547.107zm7.942-9.834l.003-.003 1.237 1.237-.003.003-.968.97-1.238-1.238.969-.969zm-6.12 6.12l4.356-4.356 1.237 1.237-4.355 4.356-2.147.91.91-2.147z" fill="#FFF"/></svg>