<svg width="16" height="16" viewBox="0 0 16 16" xmlns="http://www.w3.org/2000/svg"><title>export_list</title><path d="M7.637 1.019a.498.498 0 0 1 .32.232l2.025 2.024a.5.5 0 1 1-.707.707L8 2.707v8.794a.5.5 0 1 1-1 0V2.743L5.76 3.982a.5.5 0 0 1-.706-.707l2-2a.5.5 0 0 1 .583-.256zm6.822 8.988a.54.54 0 0 0-.54.54v3.054a.322.322 0 0 1-.322.322H1.402a.322.322 0 0 1-.322-.322v-3.055a.54.54 0 0 0-1.08 0v3.484c0 .536.436.97.97.97h13.06c.536 0 .97-.436.97-.97v-3.484a.54.54 0 0 0-.54-.539z" fill="#FFF"/></svg>