<svg width="14" height="14" viewBox="0 0 14 14" xmlns="http://www.w3.org/2000/svg"><title>icon_del</title><path d="M12.837 2.172a.587.587 0 0 0-.41-.166H10v-.901C10 .495 9.606 0 9 0H4c-.606 0-1 .495-1 1.105v.901H.558C.25 2.006 0 2.19 0 2.5s.25.5.558.5H1v10c0 .61.394 1 1 1h9.008c.606 0 .992-.39.992-1V3h.427c.306 0 .573-.19.573-.5 0-.149-.057-.22-.163-.328zM4 1h5v1.016H4V1zM2 13V3h9.006v10H2zm6.5-8c-.276 0-.5.238-.5.532v4.936c0 .294.224.532.5.532s.5-.238.5-.532V5.532C9 5.238 8.776 5 8.5 5zm-2 0c-.276 0-.5.238-.5.532v4.936c0 .294.224.532.5.532s.5-.238.5-.532V5.532C7 5.238 6.776 5 6.5 5zm-2 0c-.276 0-.5.238-.5.532v4.936c0 .294.224.532.5.532s.5-.238.5-.532V5.532C5 5.238 4.776 5 4.5 5z" fill="#CF1322"/></svg>