<svg width="14" height="14" viewBox="0 0 14 14" xmlns="http://www.w3.org/2000/svg"><title>icon_xuexi</title><path d="M12.002 8.756L12 1.763C12 .79 11.209 0 10.3 0H3.824C2.79 0 2 .79 2 1.763l.002 6.993c0 .844.49 1.95 1.115 2.517l2.572 2.236c.35.317.814.491 1.311.491.47 0 .914-.158 1.255-.446l2.59-2.305c.46-.388.844-1.051 1.033-1.707a.463.463 0 0 0 .04-.145 2.77 2.77 0 0 0 .084-.64zm-.923-.143l-2.064-.877L9.013.923h1.224a.84.84 0 0 1 .84.84l.002 6.85zM8.09.923l.002 6.665L6.984 9 5.926 7.857 5.923.923H8.09zM5 .923l.002 6.883-2.077.858-.002-6.901a.84.84 0 0 1 .84-.84H5zm3.09 11.424a1.78 1.78 0 0 0-2.29.067L3.736 10.59c-.244-.222-.469-.592-.62-.978L5.42 8.63 6.736 9.94c.156.104.36.102.515-.004l1.161-1.449a.47.47 0 0 0 .09.02l2.394 1.06c-.155.387-.39.76-.647.976L8.09 12.347z" fill="#096DD9"/></svg>