<svg width="14" height="14" viewBox="0 0 14 14" xmlns="http://www.w3.org/2000/svg"><title>icon_hexiao</title><path d="M11.728 3.93L8.108.277a1.008 1.008 0 0 0-.25-.18L7.822.082A.942.942 0 0 0 7.442 0H1.938A.937.937 0 0 0 1 .938v12.124c0 .519.42.938.938.938h9.124c.519 0 .938-.42.938-.938V4.59a.936.936 0 0 0-.272-.66zm-1.189.132H7.938V1.438l2.601 2.625zM5.871 9.726L4.854 8.707a.5.5 0 0 0-.708.707l1.073 1.073a.5.5 0 0 0 .837.467.498.498 0 0 0 .338-.337L8.95 8.06a.5.5 0 0 0-.707-.707L5.87 9.724zm5.191 3.338H1.938V.937H7v3.125c0 .519.42.938.938.938h3.125v8.063z" fill="#096DD9"/></svg>