<svg width="14" height="14" viewBox="0 0 14 14" xmlns="http://www.w3.org/2000/svg"><title>icon_handle</title><path d="M11.734 3.935L8.112.278a1.002 1.002 0 0 0-.248-.18C7.853.09 7.84.086 7.828.08A.933.933 0 0 0 7.45 0H2a.95.95 0 0 0-.952.939V13.06A.95.95 0 0 0 2 14h9.074c.52 0 .926-.42.926-.939V4.596a.932.932 0 0 0-.266-.661zM7.932 1.439l2.618 2.629H7.932V1.439zm3.13 11.622H1.986V.94h5.006v3.129a.95.95 0 0 0 .952.939h3.116v8.054zM6.982 7.39c0-.325-.228-.493-.53-.493-.303 0-.516.154-.744.382l-.72-.663c.405-.464.964-.773 1.626-.773.913 0 1.626.434 1.626 1.457 0 1.022-1.258 1.323-1.163 2.294h-1.14C5.762 8.462 6.982 7.991 6.982 7.39zm-1.018 3.48c0-.312.224-.561.54-.561.311 0 .54.249.54.56 0 .317-.23.566-.54.566-.315 0-.54-.249-.54-.566z" fill="#096DD9"/></svg>