<svg height="14" viewBox="0 0 14 14" width="14" xmlns="http://www.w3.org/2000/svg"><path d="m13.436 13h-12.874c-.31 0-.562.224-.562.5s.252.5.562.5h12.874c.311 0 .563-.224.563-.5s-.252-.5-.563-.5zm-9.743-2.04 3.655-1.548a.514.514 0 0 0 .158-.105l6.165-6.166c.436-.436.44-1.147.003-1.584l-1.23-1.23a1.121 1.121 0 0 0 -1.584.003l-6.165 6.166a.497.497 0 0 0 -.105.158l-1.55 3.654a.492.492 0 0 0 .106.545.49.49 0 0 0 .547.107zm7.942-9.833.003-.003 1.237 1.237-.003.003-.968.969-1.238-1.237.969-.97zm-6.12 6.12 4.356-4.357 1.237 1.237-4.355 4.356-2.147.91.91-2.147z" fill="#096dd9"/></svg>