<svg width="14" height="14" viewBox="0 0 14 14" xmlns="http://www.w3.org/2000/svg"><title>icon_fucha</title><path d="M11.728 3.93L8.108.277a1.008 1.008 0 0 0-.25-.18L7.822.082A.942.942 0 0 0 7.442 0H1.938A.937.937 0 0 0 1 .938v12.124c0 .519.42.938.938.938h9.124c.519 0 .938-.42.938-.938V4.59a.936.936 0 0 0-.272-.66zm-1.189.132H7.938V1.438l2.601 2.625zm-1.97 5.84a2.5 2.5 0 1 0-.667.667.5.5 0 0 0 .098.138L9.293 12a.5.5 0 0 0 .707-.707L8.707 10a.5.5 0 0 0-.137-.097zm2.493 3.16H1.938V.938H7v3.125c0 .518.42.937.938.937h3.125v8.063zM6.5 10a1.5 1.5 0 1 1 0-3 1.5 1.5 0 0 1 0 3z" fill="#096DD9"/></svg>