<svg width="14" height="14" viewBox="0 0 14 14" xmlns="http://www.w3.org/2000/svg"><title>icon_zhenggai</title><path d="M11.728 3.93L8.108.277a1.008 1.008 0 0 0-.25-.18L7.822.082A.942.942 0 0 0 7.442 0H1.938A.937.937 0 0 0 1 .938v12.124c0 .519.42.938.938.938h9.124c.519 0 .938-.42.938-.938V4.59a.936.936 0 0 0-.272-.66zm-1.189.132H7.938V1.438l2.601 2.625zm.524 9H1.937V.938H7v3.125c0 .518.42.937.938.937h3.125v8.063zM4.5 11a.5.5 0 1 0 0 1h4a.5.5 0 1 0 0-1h-4zm.252-1.015l1.329-.563a.187.187 0 0 0 .058-.038L8.38 7.142a.408.408 0 0 0 .002-.576l-.448-.448a.408.408 0 0 0-.576.002L5.116 8.36a.18.18 0 0 0-.038.058l-.563 1.329a.179.179 0 0 0 .038.198c.048.048.124.07.199.039z" fill="#096DD9"/></svg>