<svg width="14" height="14" viewBox="0 0 14 14" xmlns="http://www.w3.org/2000/svg"><title>clcase_list</title><g fill="#096DD9"><path d="M4 6a1 1 0 1 1 .001 1.999A1 1 0 0 1 4 6zm3 0a1 1 0 1 1 .001 1.999A1 1 0 0 1 7 6zm3 0a1 1 0 1 1 .001 1.999A1 1 0 0 1 10 6z"/><path d="M13.444 3.99a6.51 6.51 0 0 0-1.508-2.083A7.018 7.018 0 0 0 9.714.51 7.394 7.394 0 0 0 7 0c-.94 0-1.854.172-2.714.51a7.018 7.018 0 0 0-2.222 1.397A6.537 6.537 0 0 0 .556 3.99 6.174 6.174 0 0 0 0 6.554C0 8.152.617 9.68 1.74 10.878l.315 2.687a.49.49 0 0 0 .488.435.498.498 0 0 0 .244-.064l2.027-1.153A7.423 7.423 0 0 0 7 13.11c.94 0 1.853-.173 2.713-.51a7.018 7.018 0 0 0 2.223-1.397 6.537 6.537 0 0 0 1.508-2.084c.369-.812.555-1.673.555-2.563a6.153 6.153 0 0 0-.554-2.565zm-.896 4.72a5.546 5.546 0 0 1-1.283 1.77 6.055 6.055 0 0 1-1.914 1.201A6.381 6.381 0 0 1 7 12.123a6.428 6.428 0 0 1-2.081-.342.492.492 0 0 0-.402.039l-1.57.892-.25-2.115a.49.49 0 0 0-.138-.288C1.544 9.281.985 7.947.985 6.554c0-.748.157-1.473.467-2.156.301-.662.732-1.258 1.283-1.77a6.055 6.055 0 0 1 1.914-1.202A6.397 6.397 0 0 1 7 .984a6.41 6.41 0 0 1 2.353.442 6.03 6.03 0 0 1 1.914 1.201c.55.513.981 1.108 1.282 1.77a5.201 5.201 0 0 1-.001 4.312z"/></g></svg>