<svg width="16" height="16" viewBox="0 0 16 16" xmlns="http://www.w3.org/2000/svg"><title>modifyPw_list</title><path d="M13.673 7.31a4.501 4.501 0 0 0-5.942-.374l-5.769-5.77a.561.561 0 0 0-.795 0 .561.561 0 0 0 0 .795l5.77 5.77a4.501 4.501 0 0 0 6.738 5.942 4.5 4.5 0 0 0-.002-6.364zm-.795 5.568a3.374 3.374 0 0 1-4.773 0 3.374 3.374 0 0 1 0-4.773 3.374 3.374 0 1 1 4.773 4.773zM5.497 4.68L6.69 3.486a.561.561 0 0 0 0-.795.561.561 0 0 0-.796 0L4.702 3.884l.795.796zm-.31-2.696a.561.561 0 0 0 0-.795.561.561 0 0 0-.795 0L3.198 2.383l.796.795 1.193-1.194z" fill="#FFF"/></svg>