<svg viewBox="0 0 280 280" xmlns="http://www.w3.org/2000/svg" xmlns:xlink="http://www.w3.org/1999/xlink"><linearGradient id="a"><stop offset="0" stop-color="#808080" stop-opacity=".25"/><stop offset=".54" stop-color="#808080" stop-opacity=".12"/><stop offset="1" stop-color="#808080" stop-opacity=".1"/></linearGradient><linearGradient id="b" x1="49.998505%" x2="49.998505%" xlink:href="#a" y1="100%" y2="0%"/><linearGradient id="c" x1="50%" x2="50%" xlink:href="#a" y1="100%" y2="0%"/><linearGradient id="d" x1="50%" x2="50%" xlink:href="#a" y1="100.003519%" y2="-.000127%"/><linearGradient id="e" x1="50.019569%" x2="50.019569%" xlink:href="#a" y1="100%" y2="0%"/><g fill="none" fill-rule="evenodd" transform=""><g fill-rule="nonzero" transform="translate(30 92)"><rect fill="url(#b)" height="115.857866" opacity=".5" rx="4.5" transform="translate(12)" width="76.846" x=".073552"/><rect fill="#f2f2f2" height="113" rx="4.5" width="74" x="13" y="1"/><rect fill="#0376c7" height="13.682667" opacity=".5" rx="4.5" width="15.793939" x="20.043636" y="22.217"/><rect fill="#e0e0e0" height="2" rx="1" width="40" x="40" y="22"/><rect fill="#e0e0e0" height="2" rx="1" width="34" x="40" y="26"/><rect fill="#0376c7" height="12.920678" opacity=".5" rx="4.5" width="15.793939" x="20.043636" y="42.030847"/><rect fill="#e0e0e0" height="2" rx="1" width="40" x="40" y="42"/><rect fill="#e0e0e0" height="2" rx="1" width="40" x="40" y="47"/><rect fill="#0376c7" height="12.920678" opacity=".5" rx="4.5" width="15.793939" x="20.043636" y="63.077119"/><rect fill="#e0e0e0" height="2" rx="1" width="40" x="40" y="63"/><rect fill="#e0e0e0" height="2" rx="1" width="4" x="40" y="67"/><rect fill="url(#c)" height="66.788658" opacity=".5" rx="4.5" transform="translate(60 37)" width="74.845455" x=".081818" y=".161879"/><rect fill="#fff" height="66" rx="4.5" width="73" x="60" y="38"/><rect fill="#0376c7" height="13.737778" opacity=".5" rx="4.5" width="15.700571" x="67.192" y="52.115556"/><g fill="#e0e0e0"><rect height="2" rx="1" width="42" x="88" y="52"/><rect height="2" rx="1" width="42" x="88" y="56"/><rect height="2" rx="1" width="64" x="66" y="73"/><rect height="2" rx="1" width="64" x="66" y="78"/><rect height="2" rx="1" width="64" x="66" y="85"/><rect height="2" rx="1" width="48" x="66" y="89"/></g><path d="m136.404034 4.05036735.267038-1.1824898-.37431 1.15530612c-9.734804-2.60963314-19.769965-3.95287591-29.853503-3.996-72.6526539-.42587755-106.443259 63.30397963-106.443259 63.30397963l68.8502123 36.0546122s8.4447983-25.9921224 38.4375267-25.1448979c2.06306.0557817 4.120894.2343062 6.16242.5346122l-9.124947 28.2098572c-1.061772 1.499877-1.217191 3.45435-.405627 5.100974.811564 1.646623 2.461544 2.72454 4.306276 2.81325 1.844732.088711 3.591976-.825838 4.560126-2.386877v-.013592c.473587-.763952.731375-1.640291.746338-2.537143 0-.151775 0-.303551-.015977-.453061l6.596072-29.2541633c19.651274 5.9985306 25.605998 23.1287755 25.605998 23.1287755l69.281582-34.3760204s-26.019108-46.7853674-78.595966-60.95712245z" fill="url(#d)" opacity=".5" transform="translate(0 59)"/><path d="m107.352627 60.0020379c-71.906949-.4141715-105.352627 62.4403181-105.352627 62.4403181l68.1452542 35.557644s8.3608475-25.637896 38.0448308-24.811817c2.090815.055933 4.176182.238845 6.244322.547703l22.565593-69.7641385c-9.666034-2.5920819-19.63249-3.9265656-29.647373-3.9697096z" fill="#73d13d"/><path d="m136.484155 64-22.484155 70.491985c24.536045 3.738627 31.683462 24.508015 31.683462 24.508015l68.316538-34.253598s-25.669144-46.6242242-77.515845-60.746402z" fill="#fff"/><path d="m114.056519 163.624342 22.943481-101.624342-32.064042 99.125364c-1.069786 1.484454-1.235118 3.430008-.430926 5.070971.804191 1.640963 2.449149 2.714607 4.287486 2.798391 1.838337.083783 3.575725-.835708 4.528398-2.3966.469275-.769496.724927-1.636537.740186-2.523968.01375-.156754.006875-.302149-.004583-.449816z" fill="#4a4a4a"/><path d="m22.5788288 46.0932849-.5900901-.1125291 1.1644145-4.3633721c1.8333333-14.0087209-5.0923424-15.4302616-7.6891892-15.4784884-.2986578-.1114044-.6031864-.2057083-.9121622-.2824709v-1.6534884c3.3395459-.8402099 5.8679576-3.6269035 6.4301802-7.0870348h.0225225c.4121622 0 .7477478-.6407268.7477478-1.4307268.0161285-.4187617-.0981936-.8319777-.3265766-1.180407.03003-.3062015.045045-.6124031.045045-.9186046.0014979-2.4986902-1.002319-4.88861776-2.777027-6.61165699-.1199162-.61090116-.3343026-1.19848392-.6351351-1.74075581-.6373874-1.14825581-1.6981982-2.33784884-1.2657658-3.58026163l-2.7995496.29395349-.027027-1.88084302c-.8738739.16075581-1.240991 1.19188953-1.759009 1.92677325-1.2477477 1.76831396-3.74999999 2.0140407-5.4054054 3.39194768-.56306306.45930232-1.82882883 1.89232558-1.58783784 2.82700581-1.11186244 1.55962606-1.70962301 3.43880612-1.7072072 5.36694772 0 .3062015.01501501.6124031.04504504.9186046-.22838298.3484293-.34270514.7616453-.32657657 1.180407 0 .79.33558558 1.4307267.74774774 1.4307267h.02252253c.56222255 3.4601313 3.09063427 6.246825 6.4301802 7.0870349v1.6534884c-.3089759.0767626-.61350444.1710665-.91216219.2824709-2.59684684.0482268-9.52252252 1.4605814-7.68918919 15.4784884l1.16441442 4.3633721-.27702703.0528197c-.83210322.1583271-1.56843578.6472337-2.04699729 1.3591555-.47856152.7119219-.66014651 1.5885359-.50480451 2.4369783l4.60135135 25.0756104c.09792945.5344116.60189912.8869287 1.12612613.7877035l.80855856-.1538663v.4868605c-.91531259.4611121-1.49491178 1.4116787-1.4954955 2.4526744v.3100291h5.42342345v-.3100291c-.0003928-.9633304-.4973484-1.8555438-1.30855858-2.3493314v-1.090843l.73873878-.1400872c.5241121-.0998539.8698353-.6137271.7725225-1.1482558l-4.31081083-23.5576163h11.95270273l-4.3063063 23.5599128c-.0973129.5345287.2484103 1.0484019.7725225 1.1482558l.7387387.1400872v1.090843c-.8112101.4937877-1.3081658 1.386001-1.3085585 2.3493314v.3100291h5.4234234v-.3100291c-.0005837-1.0409957-.5801829-1.9915623-1.4954955-2.4526744v-.4868604l.8085586.1538662c.524227.0992252 1.0281966-.2532919 1.1261261-.7877035l4.6486486-25.3902325c.1401775-.7638236-.02317-1.5531372-.4540637-2.1940878-.4308938-.6409507-1.0939891-1.0809633-1.8432336-1.2231215z" fill="url(#e)" opacity=".7" transform="translate(99 13)"/><path d="m106 85h3v3h-3z" fill="#fdb797"/><path d="m115 85h3v3h-3z" fill="#fdb797"/><path d="m104 56h16v6h-16z" fill="#4d8af0"/><path d="m103.167733 56.088889h16.657733v5.857778h-16.657733z" fill="#000" opacity=".05"/><path d="m104 57.1549567s5.970604 1.8450433 8 1.8450433 8-1.8450433 8-1.8450433v-1.1549567h-16z" fill="#000" opacity=".1"/><path d="m120 57.5320469s-5.970604 1.4679531-8 1.4679531-8-1.4679531-8-1.4679531v-10.0918907c0-4.6613695 3.581722-8.4401562 8-8.4401562s8 3.7787867 8 8.4401562z" fill="#f55f44"/><path d="m110 35h4v4.4118261c0 .8771242-.775666 1.5881739-1.732499 1.5881739h-.532726c-.956832 0-1.732498-.7110497-1.732498-1.5881739v-4.4118261z" fill="#fdb797"/><path d="m109.055395 86.3260541-3.493816.6553797c-.619993.1125984-1.214283-.2984788-1.330977-.9206524l-4.16596-22.4344946c-.1847727-.9918026.030258-2.0167403.597753-2.8491648.567495-.8324244 1.440927-1.4040893 2.428003-1.5891379l.900628-.1694179c.619993-.1125984 1.214282.2984788 1.330977.9206524l4.658421 25.0404092c.056234.3019582-.009824.6139813-.183506.866785-.173683.2528037-.440615.4254638-.741523.4796413z" fill="#4d8af0"/><path d="m113.938192 86.3260004 3.471562.6554319c.616044.1126073 1.206548-.2985025 1.3225-.9207257l4.209958-22.8108133c.342064-1.858428-.869503-3.6456577-2.706716-3.9927841l-1.265192-.2385415c-.616044-.1126073-1.206548.2985025-1.3225.9207257l-4.62875 25.0424029c-.055226.3016458.010721.613114.183237.8654315s.437366.4246635.735901.4788726z" fill="#4d8af0"/><path d="m110 37.7648416c1.313743.3135445 2.686257.3135445 4 0v-2.7648416h-4z" fill="#000" opacity=".1"/><circle cx="111.5" cy="27.5" fill="#333" r="8.5"/><circle cx="112" cy="30" fill="#fdb797" r="8"/><path d="m105.547517 20.470768c1.578344-1.4161656 3.964836-1.6689647 5.152501-3.4876453.493372-.7559428.843867-1.8186806 1.676572-1.9831227l.024557 1.9340355 2.678944-.3018862c-.413004 1.276267.598297 2.5034469 1.207757 3.6815396.447892.8705566.692569 1.8495739.712152 2.8495118-.926468.6111355-2.076181-.0564503-3.107574-.4123325-1.031394-.3558822-2.069484-.3828801-3.125434-.4147868-.5389-.0412056-1.08037-.0082254-1.611831.0981744-.459951.1356839-.908165.315544-1.339472.5375048-.70992.3264298-2.953535 1.5609728-3.612109.7657602-.741174-.90075.734477-2.7194306 1.343937-3.2667528z" fill="#333"/><path d="m105.334562 25.4143423c.469028.228394.985582.369497 1.518105.4146886 2.198301.2669037 4.436864.0438707 6.513838-.6489877.34099.7651006 1.167773 1.2917551 2.052945 1.5405683s1.824062.2612538 2.751274.2736945c.203759.0203979.409708-.0142905.590893-.0995253.413392-.2467397.212535-.8148631-.028027-1.2005236l-1.195799-1.9241552c-.352668-.5681234-.717013-1.1486875-1.263531-1.5778902-.68665-.5390953-1.597513-.7920553-2.494363-.9517104-2.122622-.3752358-4.31414-.310667-6.404068.1886833-2.235117.5245811-5.105504 2.3388439-2.041267 3.9851577z" fill="#000" opacity=".1"/><path d="m105.334562 25.4143423c.469028.228394.985582.369497 1.518105.4146886 2.198301.2669037 4.436864.0438707 6.513838-.6489877.34099.7651006 1.167773 1.2917551 2.052945 1.5405683s1.824062.2612538 2.751274.2736945c.203759.0203979.409708-.0142905.590893-.0995253.413392-.2467397.212535-.8148631-.028027-1.2005236l-1.195799-1.9241552c-.352668-.5681234-.717013-1.1486875-1.263531-1.5778902-.68665-.5390953-1.597513-.7920553-2.494363-.9517104-2.122622-.3752358-4.31414-.310667-6.404068.1886833-2.235117.5204342-5.105504 2.3409173-2.041267 3.9851577z" fill="#333"/><ellipse cx="120" cy="29.5" fill="#fdb797" rx="1" ry="1.5"/><ellipse cx="104" cy="29.5" fill="#fdb797" rx="1" ry="1.5"/><path d="m109 40.0476211s-10.9527105-1.6942907-8.692889 15.1292669l1.317247 4.823112 3.770296-.1497716s-2.445979-5.6164331-.942574-9.3466809c1.503406-3.7302477 4.54792-10.4559264 4.54792-10.4559264z" fill="#f55f44"/><path d="m114 40.0476211s10.952711-1.6942907 8.692889 15.1292669l-1.317247 4.823112-3.770296-.1497716s2.445979-5.6164331.942574-9.3466809c-1.503406-3.7302477-4.54792-10.4559264-4.54792-10.4559264z" fill="#f55f44"/><circle cx="105" cy="60" fill="#fdb797" r="2"/><circle cx="119" cy="60" fill="#fdb797" r="2"/><path d="m106.170342 87.0000189h.667963c1.193871 0 2.161695 1.0542679 2.161695 2.3547732v.6452079h-5v-.6452079c-.000005-.6261601.228931-1.2265377.6362-1.6684151.407268-.4418774.959328-.6888628 1.534142-.6863581z" fill="#333"/><path d="m116.170342 87.0000189h.667963c1.193871 0 2.161695 1.0542679 2.161695 2.3547732v.6452079h-5v-.6452079c-.000005-.6261601.228931-1.2265377.6362-1.6684151.407268-.4418774.959328-.6888628 1.534142-.6863581z" fill="#333"/><path d="m104.274973 48s-.966702 3.49375.725027 5" fill="#000" opacity=".1"/><path d="m117.725027 48s.966702 3.49375-.725027 5" fill="#000" opacity=".1"/></g><text fill="#fff" font-family="PingFangSC-Semibold, PingFang SC" font-size="20" font-weight="500" letter-spacing=".3333333"><tspan x="35.333334" y="37">企业风险点和关键设施</tspan> <tspan x="25.166667" y="65">实时在线监测分析与预警</tspan></text></g></svg>