<svg viewBox="0 0 280 280" xmlns="http://www.w3.org/2000/svg" xmlns:xlink="http://www.w3.org/1999/xlink"><linearGradient id="a"><stop offset="0" stop-color="#808080" stop-opacity=".25"/><stop offset=".54" stop-color="#808080" stop-opacity=".12"/><stop offset="1" stop-color="#808080" stop-opacity=".1"/></linearGradient><linearGradient id="b" x1="49.999996%" x2="49.999996%" xlink:href="#a" y1="99.989065%" y2="-.002734%"/><linearGradient id="c" x1="50.020933%" x2="50.020933%" xlink:href="#a" y1="99.98917%" y2="-.012802%"/><g fill="none" fill-rule="evenodd" transform=""><g transform="translate(30 107)"><path d="m188.054661 105.84106h-17.971102c.413501-.832601.627994-1.750045.626542-2.679884v-81.9254741c0-3.3266528-2.693667-6.0234377-6.016473-6.0234377h-139.1061141c-3.3228063 0-6.016473 2.6967849-6.016473 6.0234377v81.9282751c-.0014521.929838.213041 1.847283.6265412 2.679883h-18.60603362c-.42355692-.000006-.82964474.169019-1.12835621.469653s-.46540328.708076-.46317012 1.132117v1.285336c0 4.921157 3.98477334 8.910543 8.90024036 8.910543h171.84568449c2.36049 0 4.624301-.938786 6.29342-2.609837s2.60682-3.937483 2.60682-6.300706v-1.285336c.002981-.424525-.16338-.832688-.462173-1.13393-.298793-.301241-.705309-.47065-1.129353-.47064zm-110.7327519 5.09654-1.5495704-1.750186h38.2581673l-1.706206 1.752986z" fill="url(#b)" fill-rule="nonzero"/><rect fill="#535461" fill-rule="nonzero" height="92.287736" rx="4" width="148.066038" x="21.29717" y="16.226415"/><path d="m25.353774 29.410377h140.966981v75.04717h-140.966981z" fill="#fff" fill-rule="nonzero"/><circle cx="96.34434" cy="23.325472" fill="#fff" fill-rule="nonzero" r="1.014151"/><path d="m74 108h43v5h-43z" fill="#fff"/><path d="m117.432821 105.471698-4.882911 5.262541h-34.4281791l-4.4126416-5.262541h-70.11510217c-.86470408 0-1.56568524.73637-1.56568524 1.644729v1.325249c0 5.080928 3.92095576 9.199833 8.75769981 9.199833h169.0883743c2.322686 0 4.550241-.969265 6.192629-2.694568 1.642387-1.725304 2.56507-4.065317 2.56507-6.505265v-1.325249c0-.908359-.700981-1.644729-1.565685-1.644729z" fill="#535461" fill-rule="nonzero"/><path d="m42.5943396 34.4811321v63.8915094h105.4716984" stroke="#535461" stroke-width="2"/><path d="m52.735849 83.160377h11.15566v12.169811h-11.15566z" fill="#aae583" fill-rule="nonzero"/><path d="m70.990566 80.117925h11.15566v16.226415h-11.15566z" fill="#73d13d" fill-rule="nonzero"/><path d="m90.259434 71.962264h11.15566v24.382076h-11.15566z" fill="#73d13d" fill-rule="nonzero"/><path d="m108.514151 59.834906h11.15566v36.509434h-11.15566z" fill="#95de64" fill-rule="nonzero"/><path d="m126.768868 46.650943h11.15566v49.693396h-11.15566z" fill="#73d13d" fill-rule="nonzero"/><path d="m57.8066038 71.9622642 19.0739734-4.1617835 18.7617924-7.7755895 18.4496114-11.6567671 18.761793-7.8020864" stroke="#535461" stroke-width="2"/><g fill-rule="nonzero"><path d="m58.3136792 74.004717c1.4002503 0 2.5353774-1.1351271 2.5353774-2.5353774 0-1.4002502-1.1351271-2.5353773-2.5353774-2.5353773-1.4002502 0-2.5353773 1.1351271-2.5353773 2.5353773 0 1.4002503 1.1351271 2.5353774 2.5353773 2.5353774z" fill="#73d13d"/><path d="m95.8231132 61.9764151c1.4002503 0 2.5353774-1.1351271 2.5353774-2.5353774 0-1.4002502-1.1351271-2.5353773-2.5353774-2.5353773-1.4002502 0-2.5353774 1.1351271-2.5353774 2.5353773 0 1.4002503 1.1351272 2.5353774 2.5353774 2.5353774z" fill="#73d13d"/><circle cx="114.091981" cy="48.186321" fill="#73d13d" r="2.535377"/><path d="m76.5825472 70.7641509c1.4002502 0 2.5353773-1.1351271 2.5353773-2.5353773 0-1.4002503-1.1351271-2.5353774-2.5353773-2.5353774-1.4002503 0-2.5353774 1.1351271-2.5353774 2.5353774 0 1.4002502 1.1351271 2.5353773 2.5353774 2.5353773z" fill="#73d13d"/><circle cx="133.360849" cy="40.087264" fill="#73d13d" r="2.535377"/><path d="m213.955637 108.492055c-1.149483-.379746-2.85408-.818563-4.205423-.663852-1.286859-.46976-4.31196-1.687761-6.378224-3.521794.059579-1.803298.013708-3.608549-.137377-5.4064589-1.056963-12.0590485 1.320503-20.0084003 1.320503-20.0084003s1.867207-6.0646859 1.662543-11.097025c.120556.2278477.187843.3628685.187843.3628685.162609-4.3403573 1.637311-8.8326131 2.741935-11.6314825.042124-.012071.083346-.0271107.123359-.045007l1.233591-2.9367032c.098287-.1712993.176378-.3534893.2327-.5428962l.199056-.4641342-.058876-.0253164c.019626-.0759492.039251-.1575243.058876-.2390994.787816-3.3445786 1.401808-11.2770528 1.401808-11.2770528 2.113925-8.3487884-2.904545-13.5020837-2.904545-13.5020837l-8.517382-7.3530097c.042395.0957191.070727.1971029.084108.3009839l-.07009-.0618845c-.120556-.3459909-.252326-.7594922-.381292-1.2320652.300421-.2164366.581811-.4582954.841084-.722924.968425-.9176081 1.634539-2.1099989 1.909262-3.417715.165173-1.0226418.207529-2.0614664.126163-3.0942275l-.140181-3.54710988c-.006369-.6942015-.07676-1.38632189-.210271-2.06750656-.642028-2.81293411-3.515733-4.78198798-6.400653-4.91138295-.917914-.00536268-1.835348.04347928-2.747542.14627258-.745977.06148734-1.494986.07745671-2.242892.04781988-.085164.00452664-.169569-.01812183-.241111-.06469749-.064926-.06497419-.102126-.15273345-.103734-.24472527-.029766-.33269361.077639-.66309365.297183-.91420358.112844-.09930594.24441-.17487276.386899-.22222179l-.204664.04781988c.100878-.07983318.214678-.14168006.336434-.18284072-.747819.13192046-1.466975.39369526-2.12514.77355688-.181344.11953811-.34792.2602294-.49624.41912718-.392028.34512949-.646858.82052813-.717725 1.33895663-.351233-.29755614-.61328-.68706456-.756976-1.12517364-.044632-.17914717-.044632-.36656205 0-.54570921-.050466.06188455-.099062.12564439-.145788.19127951 0-.01969053 0-.03938107 0-.05907161-.541804.66819426-.925265 1.45113094-1.121446 2.28972836-.152426-.18343402-.225143-.42054889-.201861-.65822658-.042054.1322079-.081305.2644158-.117752.39662371-.012731-.08767578-.012731-.17674003 0-.26441581-.330111 1.01411172-.479122 2.07874861-.440167 3.14486033 0 1.06328909.471007 2.72010727 1.606471 3.09422751.058876.01969054.117752.03375521.179432.04781988-1.297103 2.02166606-1.495175 4.56189656-.52721 6.76135506.967965 2.1994584 2.972469 3.7638971 5.335409 4.164081.018691.129395.036447.2653534.053269.4078754h.044858c.03084.2812935.056072.5907162.072894.9057648-.286563.281692-.60023.5342135-.936408.7538664-.953203.5653548-2.016454.9183917-3.117619 1.0351597-1.314978.1035162-2.592854.4870984-3.748434 1.1251737-1.359753.7623051-2.859687 1.8734141-3.330694 3.2236224-.785012 2.2503473-5.108186 5.7524503-8.007124 6.1884551l-1.031731-.0590717-.075697-.0225034v.0196905l-.252326-.0140647h-.014018-.067286v.0140647l-.260737-.0140647s-.025232.1209562-.061679.3347392c-1.45788-.5035152-4.555874-1.8987305-8.587473-5.5696095-4.485783-4.0871933-10.55561-3.2826941-12.896628-2.7679272-.163083.0360979-.286781.1698445-.310487.3357071-.023705.1658626.057549.3290963.203949.4097205.944819.5203928 2.408306 1.277072 3.083977 1.3614601 0 0-1.401808 1.4711645.089715 2.2503472.364806.1769656.797581.1346298 1.121446-.1097044.723333-.5316445 2.733525.6722913 5.646481 1.2995756 0 0 8.220199 8.534442 12.302262 9.8452693.09406.1863769.197941.3675987.311201.5428963l.252326-.0196905v.0196905h.106537l.03084.2812934s6.347384-.3347391 8.410845-2.646971c.146098-.1312436.280266-.2752713.400917-.4303789l-2.206445 27.8480476h.019625l-.019625.2644158h1.623293c.138905 3.4249868-.008332 6.8556293-.440168 10.2559578v18.1546767s-.084108 1.5977465 3.224157 3.9381077c3.468648 2.4229183 6.811206 5.0226693 10.014513 7.7890143l.400917.348804c-.608385 5.555545-1.881226 15.909955-2.943796 16.295327l.656046.115331c-1.121446 1.426157-4.306353 5.344574-5.276403 5.448653-1.188733.132208-1.982156 1.988744 0 2.385368 3.957801.687387 8.027317.284916 11.775182-1.164555.769185-.304467 1.232032-1.096244 1.121446-1.918421l-.384095-2.925451c.072719.040547.131397.102364.168217.177215.26354.79606 0-1.060476 0-1.060476 1.086107-3.502438 1.939346-7.073334 2.554093-10.68915l3.925061 3.40365s.078501-.098452.215878-.281293c.96164 2.188463 2.677453 6.666654 2.293357 9.946535-.527079 4.500694 4.485784.528831 3.961508-2.120953-.426149-2.143455 1.480309-11.229232 2.223267-14.627257.165869-.760184-.271015-1.522402-1.009301-1.760897z" fill="url(#c)"/><path d="m173.029221 34.9496834s-3.696103-.6298543-9.176531-5.5427178c-4.336133-3.8859272-10.185064-3.1218865-12.440408-2.6316956-.157397.033619-.277016.1604777-.299876.3180258s.055866.3125211.197361.3885064c.911557.4929295 2.32461 1.2131542 2.986806 1.2953091 0 0-1.365951 1.3966334.085891 2.1442431.354524.1720965.776941.1318292 1.091653-.1040629.698214-.5038834 2.637699.6408083 5.449951 1.2350621 0 0 10.960858 11.2114065 13.509894 9.3108897z" fill="#fec3be"/><path d="m192.688679 19.9577252s.954495 4.5541118 0 7.7687789l4.295228.6697223 3.81798-2.1431114v-2.8128338s-1.789678-4.2862228-1.312431-9.242168z" fill="#fec3be"/><path d="m205.872642 114.059762s3.445961 6.455103 2.906094 10.758505c-.539868 4.303402 4.491236.506283 3.962855-2.02513-.427873-2.047143 1.478892-10.73099 2.222645-13.961293.166989-.723154-.265009-1.449912-.999329-1.681188-1.588013-.50078-4.247147-1.114372-5.582457-.176099-1.972813 1.389526-2.509808 7.085205-2.509808 7.085205z" fill="#8b416f"/><path d="m192.512235 121.039336s-4.514472 5.212151-5.709479 5.330609-1.991679 1.776869 0 2.132243c3.976708.617489 8.066672.261504 11.834614-1.030069.776038-.270075 1.244572-.978443 1.134391-1.715065l-.762034-5.073092z" fill="#8b416f"/><path d="m184.731458 61.8632075-4.162456.5630986c.571314 4.9327597.554543 9.9174063-.049949 14.8460937v17.7376048s-.080474 1.5625985 3.116291 3.8347012c3.352227 2.3645352 6.582828 4.9018062 9.679096 7.6018302l11.582726 10.180822s4.595351-5.698557 3.957107-9.065886c0 0-7.658917-2.460741-8.680106-6.475634-.585519-2.2974421-3.554737-4.2232391-5.985611-5.4339011-3.148501-1.5513297-4.806137-5.1189441-3.982082-8.5703601.141952-.582104.361339-1.1418946.652118-1.6639563 2.042378-3.6263547 4.978296-11.7856529 4.978296-11.7856529l-5.616539-10.8621714z" fill="#4d4981"/><path d="m184.731458 61.8632075-4.162456.5630986c.571314 4.9327597.554543 9.9174063-.049949 14.8460937v17.7376048s-.080474 1.5625985 3.116291 3.8347012c3.352227 2.3645352 6.582828 4.9018062 9.679096 7.6018302l11.582726 10.180822s4.595351-5.698557 3.957107-9.065886c0 0-7.658917-2.460741-8.680106-6.475634-.585519-2.2974421-3.554737-4.2232391-5.985611-5.4339011-3.148501-1.5513297-4.806137-5.1189441-3.982082-8.5703601.141952-.582104.361339-1.1418946.652118-1.6639563 2.042378-3.6263547 4.978296-11.7856529 4.978296-11.7856529l-5.616539-10.8621714z" fill="#000" opacity=".05"/><path d="m191.729063 122.482528s7.600566 1.29069 7.858212 2.065104 0-1.032552 0-1.032552 4.379987-13.294106 3.360604-25.0365793c-1.019383-11.742473 1.288231-19.4894187 1.288231-19.4894187s2.705287-8.7766919 1.159409-13.8103828-17.777594-2.8395179-17.777594-2.8395179 5.668218 13.2941068 5.539395 19.6184877c0 0 .644116 19.102212 1.803524 21.296385-.011202-.011224-1.814726 18.703781-3.231781 19.228474z" fill="#4d4981"/><path d="m192.160757 22.3113208s.785557 4.7208148 8.64113 2.6825335l-5.225664 38.8300903s-15.18744.5109588-15.056513-1.2773969l3.130844-23.5013269z" fill="#fff"/><path d="m192.677196 22.3113208c-1.031851.9819911-2.376074 1.5989654-3.815447 1.7512224-1.314741.0974049-2.592923.4644952-3.749416 1.0768213-1.357943.7354579-2.870916 1.8039534-3.330262 3.1055751-.924435 2.5532878-6.735168 6.7662127-9.376411 5.872562l.924435 7.6598634s7.527541-.3829932 8.848162-3.1916098l-2.242185 27.3340561h1.980932s1.056497-7.4045346 1.848869-8.9365073c.792373-1.5319727 2.377119-9.9578225 2.509181-12.0004527s2.112994-13.7877542 3.829801-15.8192832l2.583824-6.0640585z" fill="#000" opacity=".1"/><path d="m192.688679 22.3113208c-1.16585.8952902-2.559953 1.4587303-4.029945 1.6287407-1.298201.0998262-2.559852.4699817-3.700971 1.0858272-1.341424.7378057-2.835992 1.809712-3.289751 3.1154888-.913189 2.5614385-6.653238 6.7878121-9.262352 5.8913086l.91319 7.6843155s7.435973-.3842158 8.740529-3.2017981l-2.217746 27.4046078h1.956835s1.043645-7.4281716 1.826379-8.9650348c.782734-1.5368631 2.348202-9.9896101 2.478657-12.0387609.130456-2.0491508 2.087291-13.831768 3.783215-15.8697821l2.80196-5.9692654z" fill="#000" opacity=".1"/><path d="m192.685844 22.3113208c-1.165524.8950616-2.559238 1.4583578-4.028819 1.6283249-1.298384.097691-2.560665.465859-3.702771 1.079983-1.341049.7376173-2.835199 1.80925-3.288831 3.1146934-.912935 2.5607845-6.651379 6.786079-9.259763 5.8898044l.912935 7.6823537s7.433893-.3841177 8.738085-3.2009807l-2.214291 27.4143118h1.956288s1.043354-7.4262751 1.825869-8.9627459c.782515-1.5364707 2.347545-9.9870596 2.477964-12.0356873.130419-2.0486276 2.086707-13.8282365 3.782157-15.8657302l2.804012-5.9538241z" fill="#fd6f8d"/><path d="m199.476374 17.4416473c-.16245-1.1601156.16245-1.8838574.311362-3.2435341l-7.099057 5.2630931s.170573.7104377.300532 1.7508165c.358095.0568549.720261.0853287 1.082999.0851461 2.463822 0 4.237233-1.8918398 5.404164-3.8555216z" fill="#000" opacity=".1"/><circle cx="193.70283" cy="14.198113" fill="#fec3be" r="7.099057"/><path d="m186.609902 7.74161255c-.042977-1.1954672.140424-2.38795742.539412-3.50732208-.229196.36418019-.16933.85145144.140247 1.14152061.215964-1.21997128.807776-2.32988076 1.682966-3.15630449-.47738.08276024-.722812.70774278-.604142 1.20430424.161205.4850145.44814.91224372.827998 1.23284227-.040456-.75054981.428833-1.45258498 1.022186-1.8635324.618207-.37574473 1.293595-.63455986 1.995825-.76481881-.495154.18598188-.809709.70164253-.765965 1.25567267.002091.09153448.037901.17858146.099791.24257313.067395.04562414.146674.06759417.226553.06278363.698825.02849755 1.398638.0122965 2.095616-.04851462.856919-.10205029 1.718771-.15064893 2.581087-.14554388 2.69706.11985966 5.407606 2.06900611 6.011748 4.8514626.125203.67512436.191112 1.36105684.196885 2.04902948l.132156 3.5130297c.076751 1.0248996.036909 2.0558435-.11867 3.0706904-.37822 1.8968666-1.536107 3.5164886-3.158258 4.4176848-.973639-1.4925382-1.059945-3.4102928-1.397078-5.1882112-.053199-.4102931-.197372-.8014506-.420741-1.1415206-.236404-.3446437-.652905-.4934536-1.038368-.3709942-.364104.1541053-.520533.7419884-.218462 1.0045382-.269706.3367485-.774057.085614-1.078825-.2140352-.851107-.8543229-1.437035-1.9619268-1.680268-3.1762811-.121368-.6107135-.242736-1.3641171-.809118-1.5724446-.194843-.0566562-.398473-.0712146-.598748-.042807-1.181312.085614-3.028799.6021521-4.172353.2054737-1.049156-.3624328-1.491474-2.00622249-1.491474-3.05927525z" fill="#000" opacity=".1"/><path d="m186.609902 6.7274616c-.042977-1.19546719.140424-2.38795741.539412-3.50732207-.229196.36418018-.16933.85145144.140247 1.14152061.215964-1.21997128.807776-2.32988077 1.682966-3.15630449-.47738.08276024-.722812.70774278-.604142 1.20430424.161205.4850145.44814.91224372.827998 1.23284226-.040456-.7505498.428833-1.45258498 1.022186-1.8635324.618207-.37574472 1.293595-.63455986 1.995825-.76481881-.495154.18598189-.809709.70164253-.765965 1.25567268.002091.09153447.037901.17858145.099791.24257313.067395.04562414.146674.06759417.226553.06278363.698825.02849755 1.398638.01229649 2.095616-.04851463.856919-.10205028 1.718771-.15064892 2.581087-.14554387 2.69706.11985966 5.407606 2.0690061 6.011748 4.8514626.125203.67512435.191112 1.36105684.196885 2.04902949l.132156 3.51302973c.076751 1.0248996.036909 2.0558434-.11867 3.0706904-.37822 1.8968666-1.536107 3.5164886-3.158258 4.4176848-.973639-1.4925382-1.059945-3.4102929-1.397078-5.1882112-.053199-.4102931-.197372-.8014507-.420741-1.1415206-.236404-.3446437-.652905-.4934537-1.038368-.3709942-.364104.1541053-.520533.7419884-.218462 1.0045381-.269706.3367486-.774057.0856141-1.078825-.2140351-.851107-.8543229-1.437035-1.9619269-1.680268-3.1762811-.121368-.6107135-.242736-1.36411713-.809118-1.57244464-.194843-.05665625-.398473-.07121465-.598748-.04280703-1.181312.08561405-3.028799.60215217-4.172353.20547371-1.049156-.36528659-1.491474-2.00622247-1.491474-3.05927524z" fill="#784f69"/><path d="m172.650826 34.4811321s-.920329 4.9972655.805287 8.1132075l.977849-.0940662-.53269-7.9368334z" fill="#000" opacity=".1"/><path d="m172.650826 34.4811321s-.920329 4.9972655.805287 8.1132075l.977849-.0940662-.53269-7.9368334z" fill="#fd6f8d"/><path d="m200.490272 21.2971698 8.17896 7.1543022s4.818612 5.0273475 2.789722 13.1484472c0 0-.887639 11.8593838-1.902083 12.3750092 0 0-3.550556 7.2187554-3.804167 14.0507917 0 0-4.755209-9.7324291-6.910904-3.8027372s-7.167272 6.7675831-7.167272 6.7675831l2.789723-35.0737352s7.040466-12.4394624 6.026021-14.619661z" fill="#000" opacity=".1"/><path d="m200.490272 21.2971698 8.17896 7.1538988s4.818612 5.027064 2.789722 13.1477058c0 0-.887639 11.8587151-1.902083 12.3743114 0 0-3.550556 7.2183483-3.804167 14.0499993 0 0-5.008821-10.2474766-7.167272-4.3181191-2.158451 5.9293576-6.910904 7.2856-6.910904 7.2856l2.789723-35.0577467s7.040466-12.4555738 6.026021-14.6356495z" fill="#fd6f8d"/><path d="m204.449272 50.9699596s2.087609-1.4660396 5.479973 2.5322503l-8.350436 15.4600543-2.805224-4.3256862s5.936638-11.9340261 5.675687-13.6666184z" fill="#fec3be"/><path d="m201.816038 52.0569248s4.632866 5.5249748 6.439912 4.6394072l1.673295-4.1376863-6.28055-2.8652495z" fill="#000" opacity=".1"/><path d="m201.816038 52.0569248s4.632866 5.5249748 6.439912 4.6394072l1.673295-4.1376863-6.28055-2.8652495z" fill="#fd6f8d"/><path d="m199.560687 63.8915094s2.132882 4.7566675 3.269502 5.0322427l-1.651264 2.0668139-2.40534-4.9603534z" fill="#000" opacity=".1"/><path d="m199.565117 63.8915094s2.129992 4.7566675 3.265072 5.0322427l-1.649026 2.0668139-2.407578-4.9693396z" fill="#4d4981"/><path d="m202.793969 36.509434s.325977 9.5883362-.977931 13.1839622" fill="#000" opacity=".1"/><path d="m181.533019 38.5377358s1.014151-.5795148 1.014151-2.0283018" fill="#000" opacity=".1"/></g></g><text fill="#fff" font-family="PingFangSC-Semibold, PingFang SC" font-size="20" font-weight="500" letter-spacing=".3333333"><tspan x="35.333334" y="37">提升企业安全管理水平</tspan> <tspan x="55.666667" y="65">保障企业安全发展</tspan></text></g></svg>