<svg viewBox="0 0 280 280" xmlns="http://www.w3.org/2000/svg" xmlns:xlink="http://www.w3.org/1999/xlink"><defs><linearGradient id="a"><stop offset="0" stop-color="#808080" stop-opacity=".25"/><stop offset=".54" stop-color="#808080" stop-opacity=".12"/><stop offset="1" stop-color="#808080" stop-opacity=".1"/></linearGradient><linearGradient id="b" x1="50%" x2="50%" xlink:href="#a" y1="100%" y2="0%"/><circle id="c" cx="197" cy="56" r="9"/><circle id="d" cx="197" cy="92" r="9"/><linearGradient id="e" x1="50%" x2="50%" xlink:href="#a" y1="100%" y2=".002725%"/><linearGradient id="f" x1="49.99992%" x2="49.99992%" xlink:href="#a" y1="100.01263%" y2="-.016758%"/></defs><g fill="none" fill-rule="evenodd" transform=""><text fill="#fff" font-family="PingFangSC-Semibold, PingFang SC" font-size="20" font-weight="500" letter-spacing=".3333333"><tspan x="56.166667" y="37">构建双重预防机制</tspan> <tspan x="46" y="65">实现企业危险源监管</tspan></text><g transform="translate(31 92)"><g fill-rule="nonzero"><path d="m0 0h101v112.931068h-101z" fill="url(#b)" opacity=".8" transform="translate(112)"/><rect fill="#fff" height="35" rx="4" width="98" x="113" y="75"/><path d="m122 83h4v18h-4z" fill="#64ffda"/><path d="m129.190588 83.014595h3.623529v17.756757h-3.623529z" fill="#64ffda" opacity=".7"/><path d="m137.055 83.014595h3.85v17.756757h-3.85z" fill="#64ffda" opacity=".6"/><path d="m144.145882 83.014595h3.623529v17.756757h-3.623529z" fill="#64ffda" opacity=".5"/><path d="m151.005 83.014595h3.85v17.756757h-3.85z" fill="#64ffda" opacity=".5"/><path d="m159.105 83.014595h3.85v17.756757h-3.85z" fill="#64ffda" opacity=".4"/><path d="m166.195294 83.014595h3.623529v17.756757h-3.623529z" fill="#64ffda" opacity=".3"/><circle cx="197" cy="92" fill="#0376c7" r="9"/><rect fill="#fff" height="35" rx="4" width="98" x="113" y="39"/><path d="m122 47h4v18h-4z" fill="#64ffda"/><path d="m129.190588 47.012162h3.623529v17.756757h-3.623529z" fill="#64ffda" opacity=".7"/><path d="m137.055 47.012162h3.85v17.756757h-3.85z" fill="#64ffda" opacity=".6"/><path d="m144.145882 47.012162h3.623529v17.756757h-3.623529z" fill="#64ffda" opacity=".5"/><path d="m151.005 47.012162h3.85v17.756757h-3.85z" fill="#64ffda" opacity=".5"/><path d="m159.105 47.012162h3.85v17.756757h-3.85z" fill="#64ffda" opacity=".4"/><path d="m166.195294 47.012162h3.623529v17.756757h-3.623529z" fill="#64ffda" opacity=".3"/><circle cx="197" cy="56" fill="#0376c7" r="9"/><rect fill="#fff" height="35" rx="4" width="98" x="113" y="3"/><path d="m122 11h4v18h-4z" fill="#64ffda"/><path d="m129.190588 11.012162h3.623529v17.756757h-3.623529z" fill="#64ffda" opacity=".7"/><path d="m137.055 11.012162h3.85v17.756757h-3.85z" fill="#64ffda" opacity=".6"/><path d="m144.145882 11.012162h3.623529v17.756757h-3.623529z" fill="#64ffda" opacity=".5"/><path d="m151.005 11.012162h3.85v17.756757h-3.85z" fill="#64ffda" opacity=".5"/><path d="m159.105 11.012162h3.85v17.756757h-3.85z" fill="#64ffda" opacity=".4"/><path d="m166.195294 11.012162h3.623529v17.756757h-3.623529z" fill="#64ffda" opacity=".3"/></g><g fill-rule="evenodd"><use fill="url(#b)" xlink:href="#c"/><use fill="#73d13d" xlink:href="#c"/></g><g fill-rule="evenodd"><use fill="url(#b)" xlink:href="#d"/><use fill="#73d13d" xlink:href="#d"/></g><circle cx="197" cy="20" fill="#73d13d" fill-rule="nonzero" r="9"/><path d="m134.786842 89.8459239h-134.76969136v-85.88641303c0-1.02483111.40785143-2.00768781 1.13383164-2.73235283.72598021-.72466503 1.71062067-1.13177761 2.73731173-1.13177761h127.02495499c2.137973 0 3.871143 1.73003013 3.871143 3.86413044z" fill="url(#e)" fill-rule="nonzero" opacity=".8" transform="translate(8 81)"/><path d="m13.8990466 82h124.2019064c2.153384 0 3.899047 1.7266817 3.899047 3.8566515v84.1433485h-132v-84.1433485c0-2.1299698 1.7456626-3.8566515 3.8990466-3.8566515z" fill="#fff" fill-rule="nonzero"/><path d="m14 87h123v81h-123z" fill="#f5f5f5" fill-rule="nonzero"/><path d="m15 91h122v73h-122z" fill="#e2e2e2" fill-rule="nonzero" opacity=".8"/><path d="m15 87h122v4h-122z" fill="#f5f5f5" fill-rule="nonzero"/><circle cx="17" cy="89" fill="#ff5252" fill-rule="nonzero" r="1"/><circle cx="20" cy="89" fill="#ff0" fill-rule="nonzero" r="1"/><circle cx="23" cy="89" fill="#69f0ae" fill-rule="nonzero" r="1"/><path d="m147.208803 14.4983607c-7.531133.5704918-136.8639486.3418032-141.38459588 0-5.92504854-2.8549181-5.82420712-13.93032791-5.82420712-13.93032791l59.3119741-.39590164.1992233 3.37131147h25.3923625l.9838187-2.97540983h65.7387704s1.306019 10.16311471-4.417346 13.93032791z" fill="url(#f)" fill-rule="nonzero" opacity=".8" transform="translate(0 162)"/><path d="m150.872983 163h-64.4994655c.5183698.564641.6427144 1.372127.3169588 2.058308-.3257556.686182-1.0400576 1.121402-1.8207813 1.109391h-24.61248c-.7807237.012011-1.4950258-.423209-1.8207813-1.109391-.3257556-.686181-.201411-1.493667.3169587-2.058308h-57.75328852s-.09834572 9.310321 5.75696328 11.7093c4.46716514.287973 132.30684784.475988 139.74966184 0 5.658409-3.167699 4.366254-11.7093 4.366254-11.7093z" fill="#f5f5f5" fill-rule="nonzero"/><circle cx="15" cy="166" fill="#e0e0e0" fill-rule="nonzero" r="1"/><circle cx="17" cy="166" fill="#e0e0e0" fill-rule="nonzero" r="1"/><circle cx="19" cy="166" fill="#e0e0e0" fill-rule="nonzero" r="1"/><g fill-rule="nonzero" opacity=".7" transform="translate(52 97)"><path d="m24.0603077.09139442-23.93969231 14.78366568s0 30.4930122 23.93969231 47.1230892c23.9396923-16.6325521 23.9396923-47.1230892 23.9396923-47.1230892z" fill="#fff"/><path d="m23.9879913 2-21.9879913 13.6124809s0 28.0749873 22 43.3875191c22-15.3125318 22-43.3875191 22-43.3875191z" fill="#52c41a"/><path d="m24.3707202 2-.3707202.23295214v54.51080046l.3707202.2562474c21.6292798-14.7714951 21.6292798-41.8545108 21.6292798-41.8545108z" fill="#000" opacity=".05"/><path d="m24 5-20 12.1784483s0 25.1189655 20 38.8215517c20-13.7025862 20-38.8215517 20-38.8215517z" fill="#73d13d"/><path d="m24 5v51c20-13.7052117 20-38.8289902 20-38.8289902z" fill="#000" opacity=".08"/></g><path d="m59 75v-51h42" stroke="#64ffda" stroke-dasharray="12" stroke-width="2"/><path d="m46 60v-51h42" stroke="#64ffda" stroke-dasharray="12" stroke-width="2"/><path d="m176 117v40h-22" stroke="#64ffda" stroke-dasharray="12" stroke-width="2"/><path d="m189 126v40h-22" stroke="#64ffda" stroke-dasharray="12" stroke-width="2"/></g></g></svg>