<svg viewBox="0 0 385 82" xmlns="http://www.w3.org/2000/svg"><g fill="#fff" fill-rule="evenodd" transform=""><text font-family="HiraKakuStd-W8, Hiragino Kaku Gothic Std" font-size="38" font-weight="600"><tspan x="101" y="40">VGuard</tspan></text><text font-family="PingFangSC-Semibold, PingFang SC" font-size="38" font-weight="500"><tspan x="310" y="40">威盾</tspan></text><path d="m13.4487238 7.47797667c.4704888 6.31052103 1.3808414 13.34611953 3.0800079 19.89834853 5.9104916 22.7662265 16.2750865 33.4453226 19.183299 34.5670448.1026457.0377533.2072384.05663.3137173.05663.108365 0 .2195899-.0188767.3251561-.0609075 3.3264616-1.3425702 13.5512954-13.1927655 19.1119885-34.5583969 1.7029901-6.5411895 2.6164211-13.6085588 3.0884599-19.95829713 3.7275231 1.55462753 7.2813888 3.11312003 10.1324421 4.40752523 1.8079561.8165334 3.3555376 3.2502325 3.3154433 5.2073647-.1696149 8.0652781-1.2708263 19.877813-5.5355799 30.3434072-8.7036936 21.3656314-24.7077812 33.2158267-29.9144168 34.5583969-.1652341.0420308-.3393251.0609075-.50894.0609075-.1666627 0-.3303729-.0188767-.4910358-.05663-4.5519847-1.1217222-20.774829-11.8008183-30.02603312-34.5670448-4.26627742-10.5106008-5.35548908-22.2650178-5.52215171-30.2750605-.04466562-2.2084805 1.29911134-4.3094662 3.33620469-5.2320997 2.84826886-1.2900778 6.39282919-2.84166261 10.11143854-4.39118833zm7.5512762-3.20044986c6.2773127-2.4065846 11.9935892-4.26812446 14.5670201-4.27752681 2.5669056.00718642 8.2196881 1.84225423 14.4329799 4.22238763-.3534495 4.11499923-.8519451 8.32029477-1.5495274 12.32718257-3.70031 21.2614088-10.5043277 33.0537983-12.7178897 34.3898194-.070248.0418258-.1442615.0606104-.216372.0606104-.0708554 0-.1404556-.0187846-.2087602-.0563538-1.9352421-1.1162504-8.8322626-11.7432533-12.7653425-34.3984251-.6937767-4.0007362-1.1899324-8.18256659-1.5421082-12.26769429z" fill-rule="nonzero"/><text font-family="PingFangSC-Semibold, PingFang SC" font-size="20" font-weight="500" letter-spacing=".333333254"><tspan x="101" y="74">企业安全生产监管综合信息平台</tspan></text></g></svg>