<?xml version="1.0" encoding="UTF-8" standalone="no"?>
<svg width="24px" height="24px" viewBox="0 0 24 24" version="1.1" xmlns="http://www.w3.org/2000/svg" xmlns:xlink="http://www.w3.org/1999/xlink">
    <!-- Generator: Sketch 48.1 (47250) - http://www.bohemiancoding.com/sketch -->
    <title>File Text - FontAwesome</title>
    <desc>Created with Sketch.</desc>
    <defs></defs>
    <g id="过程再现" stroke="none" stroke-width="1" fill="none" fill-rule="evenodd" transform="translate(-553.000000, -393.000000)">
        <g id="一企一档" transform="translate(270.000000, 115.000000)" fill="#FFFFFF">
            <g id="Group-Copy-2" transform="translate(271.000000, 266.000000)">
                <g id="File-Text---FontAwesome_export" transform="translate(12.000000, 12.000000)">
                    <path d="M22,7 L15,7 L15,0 C15.1822917,0.120535858 21.8828125,6.81249978 22,7 Z M15,8 L22,8 L22,22.7143128 C22,23.4241351 21.4401042,24.0000286 20.75,24.0000286 L3.25,24.0000286 C2.55989583,24.0000286 2,23.4241351 2,22.7143128 L2,1.28571582 C2,0.575893544 2.55989583,0 3.25,0 L14,0 L14,7 C14,7.70982227 14.3098958,8 15,8 Z M17,18.5714281 L17,17.4285719 C17,17.1875002 16.8177083,17 16.5833333,17 L7.41666667,17 C7.18229167,17 7,17.1875002 7,17.4285719 L7,18.5714281 C7,18.8124998 7.18229167,19 7.41666667,19 L16.5833333,19 C16.8177083,19 17,18.8124998 17,18.5714281 Z M17,15.5714281 L17,14.4285719 C17,14.1875002 16.8177083,14 16.5833333,14 L7.41666667,14 C7.18229167,14 7,14.1875002 7,14.4285719 L7,15.5714281 C7,15.8124998 7.18229167,16 7.41666667,16 L16.5833333,16 C16.8177083,16 17,15.8124998 17,15.5714281 Z M17,12.5 L17,11.5 C17,11.21875 16.8177083,11 16.5833333,11 L7.41666667,11 C7.18229167,11 7,11.21875 7,11.5 L7,12.5 C7,12.78125 7.18229167,13 7.41666667,13 L16.5833333,13 C16.8177083,13 17,12.78125 17,12.5 Z" id="File-Text---FontAwesome"></path>
                </g>
            </g>
        </g>
    </g>
</svg>