<?xml version="1.0" encoding="UTF-8" standalone="no"?>
<svg width="60px" height="44px" viewBox="0 0 60 44" version="1.1" xmlns="http://www.w3.org/2000/svg" xmlns:xlink="http://www.w3.org/1999/xlink">
    <!-- Generator: Sketch 48.1 (47250) - http://www.bohemiancoding.com/sketch -->
    <title>sywrw</title>
    <desc>Created with Sketch.</desc>
    <defs>
        <rect id="path-1" x="0" y="0" width="59" height="16"></rect>
    </defs>
    <g id="大气环境" stroke="none" stroke-width="1" fill="none" fill-rule="evenodd" transform="translate(-827.000000, -381.000000)">
        <g id="sywrw" transform="translate(856.547749, 402.678203) rotate(-30.000000) translate(-856.547749, -402.678203) translate(827.047749, 394.678203)">
            <g id="Rectangle-5">
                <use fill="#410C12" fill-rule="evenodd" xlink:href="#path-1"></use>
                <rect stroke="#D0021B" stroke-width="1" x="0.5" y="0.5" width="58" height="15"></rect>
            </g>
            <path d="M11.152,6.346 L11.152,13.111 L10.371,13.111 L10.371,12.66 L4.629,12.66 L4.629,13.111 L3.848,13.111 L3.848,6.346 L6.829,6.346 C6.917,5.994 6.994,5.62 7.038,5.235 L2.627,5.235 L2.627,4.465 L5.432,4.465 C5.267,4.036 5.08,3.629 4.86,3.255 L5.63,2.969 C5.85,3.387 6.059,3.882 6.246,4.465 L8.688,4.465 C8.941,3.981 9.161,3.475 9.348,2.936 L10.129,3.211 C9.953,3.684 9.766,4.102 9.557,4.465 L12.373,4.465 L12.373,5.235 L7.874,5.235 C7.808,5.62 7.742,5.994 7.654,6.346 L11.152,6.346 Z M4.629,11.945 L10.371,11.945 L10.371,10.768 L4.629,10.768 L4.629,11.945 Z M4.629,10.064 L10.371,10.064 L10.371,8.92 L4.629,8.92 L4.629,10.064 Z M4.629,8.216 L10.371,8.216 L10.371,7.072 L4.629,7.072 L4.629,8.216 Z M13.638,3.453 L23.362,3.453 L23.362,4.168 L20.117,4.168 L20.117,5.147 L22.68,5.147 L22.68,7.919 L18.104,7.919 C17.906,8.271 17.719,8.59 17.543,8.898 L23.494,8.898 L23.494,9.624 L21.129,9.624 C20.909,10.284 20.502,10.845 19.919,11.318 C21.041,11.659 22.185,12.055 23.351,12.517 L22.856,13.166 C21.646,12.649 20.425,12.198 19.204,11.802 C18.159,12.363 16.443,12.803 14.067,13.122 L13.77,12.418 C15.728,12.187 17.213,11.879 18.203,11.494 C17.29,11.219 16.377,10.977 15.464,10.768 C15.728,10.383 15.97,9.998 16.212,9.624 L13.495,9.624 L13.495,8.898 L16.652,8.898 C16.85,8.557 17.037,8.227 17.213,7.919 L14.32,7.919 L14.32,5.147 L16.883,5.147 L16.883,4.168 L13.638,4.168 L13.638,3.453 Z M19.072,11.065 C19.688,10.68 20.106,10.196 20.326,9.624 L17.114,9.624 C16.927,9.921 16.751,10.196 16.586,10.438 C17.4,10.614 18.225,10.823 19.072,11.065 Z M19.358,5.147 L19.358,4.168 L17.642,4.168 L17.642,5.147 L19.358,5.147 Z M21.921,7.237 L21.921,5.84 L20.117,5.84 L20.117,7.237 L21.921,7.237 Z M19.358,7.237 L19.358,5.84 L17.642,5.84 L17.642,7.237 L19.358,7.237 Z M16.883,7.237 L16.883,5.84 L15.079,5.84 L15.079,7.237 L16.883,7.237 Z M25.364,3.2 C26.112,3.728 26.728,4.245 27.234,4.773 L26.684,5.323 C26.233,4.828 25.606,4.3 24.814,3.739 L25.364,3.2 Z M25.089,5.829 C25.837,6.357 26.453,6.896 26.959,7.424 L26.409,7.974 C25.947,7.468 25.32,6.94 24.528,6.368 L25.089,5.829 Z M26.266,8.744 L26.959,9.008 C26.497,10.416 25.969,11.736 25.397,12.979 L24.66,12.66 C25.276,11.384 25.815,10.075 26.266,8.744 Z M27.399,5.939 L34.373,5.939 L34.373,6.709 L29.918,6.709 C29.797,7.336 29.676,7.908 29.544,8.425 L33.581,8.425 C33.537,10.867 33.339,12.253 32.965,12.561 C32.668,12.825 32.008,12.968 30.996,12.979 L30.226,12.979 L29.995,12.22 C30.369,12.22 30.71,12.231 31.029,12.231 C31.722,12.22 32.162,12.132 32.36,11.967 C32.602,11.769 32.734,10.823 32.778,9.14 L28.587,9.14 C28.818,8.238 28.994,7.424 29.126,6.709 L27.399,6.709 L27.399,5.939 Z M28.048,3.541 L33.823,3.541 L33.823,4.289 L28.048,4.289 L28.048,3.541 Z M39.279,9.844 L35.759,9.844 L35.759,9.118 L40.115,9.118 L40.115,8.183 L40.929,8.183 L40.929,9.118 L45.274,9.118 L45.274,9.844 L41.765,9.844 C42.568,10.79 43.822,11.527 45.527,12.066 L45.164,12.825 C43.228,12.077 41.875,11.076 41.083,9.844 L40.929,9.844 L40.929,13.078 L40.115,13.078 L40.115,9.844 L39.95,9.844 C39.257,11.032 37.926,12.066 35.957,12.946 L35.506,12.198 C37.354,11.505 38.619,10.724 39.279,9.844 Z M40.632,3.024 L41.446,3.024 L41.446,4.19 L43.602,4.19 L43.602,7.281 C43.602,7.446 43.679,7.534 43.855,7.534 L44.229,7.534 C44.383,7.523 44.504,7.457 44.581,7.325 C44.647,7.193 44.713,6.731 44.768,5.939 L45.472,6.17 C45.384,7.094 45.274,7.666 45.142,7.908 C45.01,8.139 44.746,8.26 44.35,8.26 L43.701,8.26 C43.107,8.26 42.821,7.985 42.821,7.446 L42.832,4.927 L41.402,4.927 C41.314,5.763 41.105,6.445 40.797,6.973 C40.401,7.611 39.763,8.117 38.883,8.48 L38.454,7.809 C39.268,7.468 39.829,7.017 40.159,6.456 C40.379,6.038 40.522,5.521 40.588,4.927 L39.07,4.927 L39.07,4.19 L40.632,4.19 L40.632,3.024 Z M36.815,3.222 C37.497,3.497 38.102,3.827 38.652,4.223 L38.256,4.828 C37.662,4.399 37.046,4.058 36.419,3.816 L36.815,3.222 Z M36.111,4.696 C36.716,4.938 37.277,5.235 37.783,5.587 L37.387,6.192 C36.837,5.807 36.287,5.51 35.715,5.29 L36.111,4.696 Z M38.179,6.049 L38.762,6.489 C37.992,7.391 37.178,8.15 36.342,8.744 L35.792,8.139 C36.683,7.545 37.475,6.841 38.179,6.049 Z M51.522,3.002 L52.27,3.2 C52.149,3.772 52.017,4.3 51.863,4.784 L56.131,4.784 C56.131,8.458 56.076,10.724 55.966,11.582 C55.845,12.55 55.251,13.034 54.184,13.034 C54.03,13.034 53.755,13.023 53.359,13.001 L53.172,12.286 C53.524,12.308 53.821,12.33 54.074,12.33 C54.745,12.33 55.13,11.978 55.229,11.274 C55.306,10.658 55.35,8.744 55.372,5.554 L54.624,5.554 C54.382,7.391 54.052,8.843 53.623,9.91 C53.117,11.054 52.369,12.088 51.368,13.001 L50.884,12.374 C51.808,11.538 52.49,10.614 52.952,9.602 C53.381,8.579 53.7,7.226 53.909,5.554 L53.051,5.554 C52.611,7.952 51.775,9.69 50.543,10.779 L50.026,10.185 C51.159,9.217 51.929,7.666 52.347,5.554 L51.588,5.554 C51.291,6.258 50.961,6.83 50.587,7.292 L50.004,6.797 C50.708,5.917 51.214,4.652 51.522,3.002 Z M47.54,6.082 C47.419,6.632 47.276,7.171 47.1,7.688 L46.407,7.49 C46.825,6.324 47.056,5.103 47.111,3.816 L47.804,3.871 C47.782,4.355 47.738,4.839 47.672,5.312 L48.442,5.312 L48.442,3.024 L49.212,3.024 L49.212,5.312 L50.136,5.312 L50.136,6.082 L49.212,6.082 L49.212,8.722 C49.52,8.579 49.806,8.436 50.092,8.282 L50.092,9.03 C49.806,9.184 49.509,9.327 49.212,9.47 L49.212,13.1 L48.442,13.1 L48.442,9.8 C47.881,10.02 47.309,10.229 46.715,10.416 L46.528,9.646 C47.188,9.492 47.826,9.294 48.442,9.052 L48.442,6.082 L47.54,6.082 Z" id="首要污染物" fill="#FF0000"></path>
        </g>
    </g>
</svg>