<?xml version="1.0" encoding="UTF-8" standalone="no"?>
<svg width="238px" height="155px" viewBox="0 0 238 155" version="1.1" xmlns="http://www.w3.org/2000/svg" xmlns:xlink="http://www.w3.org/1999/xlink">
    <!-- Generator: Sketch 43.1 (39012) - http://www.bohemiancoding.com/sketch -->
    <title>Rectangle 3 Copy 2</title>
    <desc>Created with Sketch.</desc>
    <defs>
        <linearGradient x1="50%" y1="0%" x2="50%" y2="100%" id="linearGradient-1">
            <stop stop-color="#1D478B" offset="0%"></stop>
            <stop stop-color="#1A457C" offset="100%"></stop>
        </linearGradient>
        <linearGradient x1="50%" y1="0%" x2="50%" y2="100%" id="linearGradient-2">
            <stop stop-color="#6DF5FE" offset="0%"></stop>
            <stop stop-color="#0096E5" offset="100%"></stop>
        </linearGradient>
        <polygon id="path-3" points="18.4680278 0 224 4.3428372e-14 224 121.9 205.467346 141 0 141 0 19.1"></polygon>
        <filter x="-4.7%" y="-6.0%" width="109.4%" height="114.9%" filterUnits="objectBoundingBox" id="filter-4">
            <feMorphology radius="2.5" operator="dilate" in="SourceAlpha" result="shadowSpreadOuter1"></feMorphology>
            <feOffset dx="0" dy="2" in="shadowSpreadOuter1" result="shadowOffsetOuter1"></feOffset>
            <feGaussianBlur stdDeviation="2" in="shadowOffsetOuter1" result="shadowBlurOuter1"></feGaussianBlur>
            <feComposite in="shadowBlurOuter1" in2="SourceAlpha" operator="out" result="shadowBlurOuter1"></feComposite>
            <feColorMatrix values="0 0 0 0 0   0 0 0 0 0   0 0 0 0 0  0 0 0 0.5 0" type="matrix" in="shadowBlurOuter1"></feColorMatrix>
        </filter>
    </defs>
    <g id="应急救援" stroke="none" stroke-width="1" fill="none" fill-rule="evenodd">
        <g id="标注标准-copy" transform="translate(-1107.000000, -257.000000)">
            <g id="Group-4" transform="translate(1114.000000, 262.000000)">
                <g id="Rectangle-3-Copy-2">
                    <use fill="black" fill-opacity="1" filter="url(#filter-4)" xlink:href="#path-3"></use>
                    <use fill-opacity="0.7" fill="url(#linearGradient-1)" fill-rule="evenodd" xlink:href="#path-3"></use>
                    <path stroke="url(#linearGradient-2)" stroke-width="2" d="M18.4680278,-1 L18.0439263,-1 L17.7491277,-0.695113432 L-0.718900074,18.4048866 L-1,18.6956057 L-1,19.1 L-1,141 L-1,142 L0,142 L205.467346,142 L205.890418,142 L206.185032,141.696367 L224.717685,122.596367 L225,122.30541 L225,121.9 L225,4.3428372e-14 L225,-1 L224,-1 L18.4680278,-1 Z"></path>
                </g>
            </g>
        </g>
    </g>
</svg>