<?xml version="1.0" encoding="UTF-8" standalone="no"?>
<svg width="238px" height="168px" viewBox="0 0 238 168" version="1.1" xmlns="http://www.w3.org/2000/svg" xmlns:xlink="http://www.w3.org/1999/xlink">
    <!-- Generator: Sketch 43.1 (39012) - http://www.bohemiancoding.com/sketch -->
    <title>Rectangle 3 Copy</title>
    <desc>Created with Sketch.</desc>
    <defs>
        <linearGradient x1="50%" y1="0%" x2="50%" y2="100%" id="linearGradient-1">
            <stop stop-color="#1D478B" offset="0%"></stop>
            <stop stop-color="#1A457C" offset="100%"></stop>
        </linearGradient>
        <linearGradient x1="50%" y1="0%" x2="50%" y2="100%" id="linearGradient-2">
            <stop stop-color="#6DF5FE" offset="0%"></stop>
            <stop stop-color="#6DF5FE" offset="100%"></stop>
        </linearGradient>
        <polygon id="path-3" points="1133.46803 28 1339 28 1339 162.892857 1320.46735 182 1115 182 1115 47.1071429"></polygon>
        <filter x="-4.7%" y="-5.5%" width="109.4%" height="113.6%" filterUnits="objectBoundingBox" id="filter-4">
            <feMorphology radius="2.5" operator="dilate" in="SourceAlpha" result="shadowSpreadOuter1"></feMorphology>
            <feOffset dx="0" dy="2" in="shadowSpreadOuter1" result="shadowOffsetOuter1"></feOffset>
            <feGaussianBlur stdDeviation="2" in="shadowOffsetOuter1" result="shadowBlurOuter1"></feGaussianBlur>
            <feComposite in="shadowBlurOuter1" in2="SourceAlpha" operator="out" result="shadowBlurOuter1"></feComposite>
            <feColorMatrix values="0 0 0 0 0   0 0 0 0 0   0 0 0 0 0  0 0 0 0.5 0" type="matrix" in="shadowBlurOuter1"></feColorMatrix>
        </filter>
    </defs>
    <g id="应急救援" stroke="none" stroke-width="1" fill="none" fill-rule="evenodd">
        <g id="标注标准-copy" transform="translate(-1108.000000, -23.000000)">
            <g id="Rectangle-3-Copy">
                <use fill="black" fill-opacity="1" filter="url(#filter-4)" xlink:href="#path-3"></use>
                <use fill-opacity="0.7" fill="url(#linearGradient-1)" fill-rule="evenodd" xlink:href="#path-3"></use>
                <path stroke="url(#linearGradient-2)" stroke-width="2" d="M1133.46803,27 L1133.04382,27 L1132.749,27.3050209 L1114.28097,46.4121638 L1114,46.7028572 L1114,47.1071429 L1114,182 L1114,183 L1115,183 L1320.46735,183 L1320.89053,183 L1321.18516,182.696233 L1339.71782,163.58909 L1340,163.298159 L1340,162.892857 L1340,28 L1340,27 L1339,27 L1133.46803,27 Z"></path>
            </g>
        </g>
    </g>
</svg>