<?xml version="1.0" encoding="UTF-8" standalone="no"?>
<svg width="238px" height="289px" viewBox="0 0 238 289" version="1.1" xmlns="http://www.w3.org/2000/svg" xmlns:xlink="http://www.w3.org/1999/xlink">
    <!-- Generator: Sketch 43.1 (39012) - http://www.bohemiancoding.com/sketch -->
    <title>Rectangle 3 Copy 6</title>
    <desc>Created with Sketch.</desc>
    <defs>
        <linearGradient x1="50%" y1="0%" x2="50%" y2="100%" id="linearGradient-1">
            <stop stop-color="#1D478B" offset="0%"></stop>
            <stop stop-color="#1A457C" offset="100%"></stop>
        </linearGradient>
        <linearGradient x1="50%" y1="0%" x2="50%" y2="100%" id="linearGradient-2">
            <stop stop-color="#6DF5FE" offset="0%"></stop>
            <stop stop-color="#0096E5" offset="100%"></stop>
        </linearGradient>
        <polygon id="path-3" points="1135.46803 422 1341 422 1341 677.902778 1322.46735 697 1117 697 1117 441.097222"></polygon>
        <filter x="-4.7%" y="-3.1%" width="109.4%" height="107.6%" filterUnits="objectBoundingBox" id="filter-4">
            <feMorphology radius="2.5" operator="dilate" in="SourceAlpha" result="shadowSpreadOuter1"></feMorphology>
            <feOffset dx="0" dy="2" in="shadowSpreadOuter1" result="shadowOffsetOuter1"></feOffset>
            <feGaussianBlur stdDeviation="2" in="shadowOffsetOuter1" result="shadowBlurOuter1"></feGaussianBlur>
            <feComposite in="shadowBlurOuter1" in2="SourceAlpha" operator="out" result="shadowBlurOuter1"></feComposite>
            <feColorMatrix values="0 0 0 0 0   0 0 0 0 0   0 0 0 0 0  0 0 0 0.5 0" type="matrix" in="shadowBlurOuter1"></feColorMatrix>
        </filter>
    </defs>
    <g id="应急救援" stroke="none" stroke-width="1" fill="none" fill-rule="evenodd">
        <g id="标注标准-copy" transform="translate(-1110.000000, -417.000000)">
            <g id="Rectangle-3-Copy-6">
                <use fill="black" fill-opacity="1" filter="url(#filter-4)" xlink:href="#path-3"></use>
                <use fill-opacity="0.7" fill="url(#linearGradient-1)" fill-rule="evenodd" xlink:href="#path-3"></use>
                <path stroke="url(#linearGradient-2)" stroke-width="2" d="M1135.46803,421 L1135.04397,421 L1134.74918,421.304834 L1116.28115,440.402057 L1116,440.692786 L1116,441.097222 L1116,697 L1116,698 L1117,698 L1322.46735,698 L1322.89038,698 L1323.18498,697.69642 L1341.71763,678.599197 L1342,678.30823 L1342,677.902778 L1342,422 L1342,421 L1341,421 L1135.46803,421 Z"></path>
            </g>
        </g>
    </g>
</svg>