<?xml version="1.0" encoding="UTF-8" standalone="no"?>
<svg width="258px" height="219px" viewBox="0 0 258 219" version="1.1" xmlns="http://www.w3.org/2000/svg" xmlns:xlink="http://www.w3.org/1999/xlink">
    <!-- Generator: Sketch 43.1 (39012) - http://www.bohemiancoding.com/sketch -->
    <title>Rectangle 3 Copy 5 </title>
    <desc>Created with Sketch.</desc>
    <defs>
        <linearGradient x1="50%" y1="0%" x2="50%" y2="100%" id="linearGradient-1">
            <stop stop-color="#1D478B" offset="0%"></stop>
            <stop stop-color="#1A457C" offset="100%"></stop>
        </linearGradient>
        <linearGradient x1="50%" y1="0%" x2="50%" y2="100%" id="linearGradient-2">
            <stop stop-color="#6DF5FE" offset="0%"></stop>
            <stop stop-color="#0096E5" offset="100%"></stop>
        </linearGradient>
        <polygon id="path-3" points="47.6268137 28 273 28 273 214.995885 254.308004 233 29 233 29 46.0041152"></polygon>
        <filter x="-4.3%" y="-4.1%" width="108.6%" height="110.2%" filterUnits="objectBoundingBox" id="filter-4">
            <feMorphology radius="2.5" operator="dilate" in="SourceAlpha" result="shadowSpreadOuter1"></feMorphology>
            <feOffset dx="0" dy="2" in="shadowSpreadOuter1" result="shadowOffsetOuter1"></feOffset>
            <feGaussianBlur stdDeviation="2" in="shadowOffsetOuter1" result="shadowBlurOuter1"></feGaussianBlur>
            <feComposite in="shadowBlurOuter1" in2="SourceAlpha" operator="out" result="shadowBlurOuter1"></feComposite>
            <feColorMatrix values="0 0 0 0 0   0 0 0 0 0   0 0 0 0 0  0 0 0 0.5 0" type="matrix" in="shadowBlurOuter1"></feColorMatrix>
        </filter>
    </defs>
    <g id="应急救援" stroke="none" stroke-width="1" fill="none" fill-rule="evenodd">
        <g id="标注标准-copy" transform="translate(-22.000000, -23.000000)">
            <g id="Rectangle-3-Copy-5">
                <use fill="black" fill-opacity="1" filter="url(#filter-4)" xlink:href="#path-3"></use>
                <use fill-opacity="0.7" fill="url(#linearGradient-1)" fill-rule="evenodd" xlink:href="#path-3"></use>
                <path stroke="url(#linearGradient-2)" stroke-width="2" d="M47.6268137,27 L47.2225225,27 L46.9318277,27.2809768 L28.3050139,45.285092 L28,45.5799093 L28,46.0041152 L28,233 L28,234 L29,234 L254.308004,234 L254.711281,234 L255.001734,233.720235 L273.69373,215.71612 L274,215.421121 L274,214.995885 L274,28 L274,27 L273,27 L47.6268137,27 Z"></path>
            </g>
        </g>
    </g>
</svg>