<?xml version="1.0" encoding="UTF-8" standalone="no"?>
<svg width="765px" height="105px" viewBox="0 0 765 105" version="1.1" xmlns="http://www.w3.org/2000/svg" xmlns:xlink="http://www.w3.org/1999/xlink">
    <!-- Generator: Sketch 43.1 (39012) - http://www.bohemiancoding.com/sketch -->
    <title>Rectangle 3 Copy 4</title>
    <desc>Created with Sketch.</desc>
    <defs>
        <linearGradient x1="50%" y1="0%" x2="50%" y2="100%" id="linearGradient-1">
            <stop stop-color="#1D478B" offset="0%"></stop>
            <stop stop-color="#1A457C" offset="100%"></stop>
        </linearGradient>
        <linearGradient x1="50%" y1="0%" x2="50%" y2="100%" id="linearGradient-2">
            <stop stop-color="#6DF5FE" offset="0%"></stop>
            <stop stop-color="#0096E5" offset="100%"></stop>
        </linearGradient>
        <polygon id="path-3" points="20.5412569 0 751 0 751 70.3181818 730.386862 91 0 91 0 20.6818182"></polygon>
        <filter x="-1.4%" y="-9.3%" width="102.8%" height="123.1%" filterUnits="objectBoundingBox" id="filter-4">
            <feMorphology radius="2.5" operator="dilate" in="SourceAlpha" result="shadowSpreadOuter1"></feMorphology>
            <feOffset dx="0" dy="2" in="shadowSpreadOuter1" result="shadowOffsetOuter1"></feOffset>
            <feGaussianBlur stdDeviation="2" in="shadowOffsetOuter1" result="shadowBlurOuter1"></feGaussianBlur>
            <feComposite in="shadowBlurOuter1" in2="SourceAlpha" operator="out" result="shadowBlurOuter1"></feComposite>
            <feColorMatrix values="0 0 0 0 0   0 0 0 0 0   0 0 0 0 0  0 0 0 0.5 0" type="matrix" in="shadowBlurOuter1"></feColorMatrix>
        </filter>
    </defs>
    <g id="应急救援" stroke="none" stroke-width="1" fill="none" fill-rule="evenodd">
        <g id="标注标准-copy" transform="translate(-298.000000, -655.000000)">
            <g id="Group-5" transform="translate(305.000000, 660.000000)">
                <g id="Group-2">
                    <g id="Rectangle-3-Copy-4">
                        <use fill="black" fill-opacity="1" filter="url(#filter-4)" xlink:href="#path-3"></use>
                        <use fill-opacity="0.7" fill="url(#linearGradient-1)" fill-rule="evenodd" xlink:href="#path-3"></use>
                        <path stroke="url(#linearGradient-2)" stroke-width="2" d="M20.5412569,-1 L20.1250446,-1 L19.8317432,-0.704691613 L-0.709513729,19.9771266 L-1,20.2696006 L-1,20.6818182 L-1,91 L-1,92 L0,92 L730.386862,92 L730.80205,92 L731.095144,91.7059298 L751.708282,71.0241116 L752,70.7314215 L752,70.3181818 L752,0 L752,-1 L751,-1 L20.5412569,-1 Z"></path>
                    </g>
                </g>
            </g>
        </g>
    </g>
</svg>