<?xml version="1.0" encoding="UTF-8" standalone="no"?>
<svg width="50px" height="30px" viewBox="0 0 50 30" version="1.1" xmlns="http://www.w3.org/2000/svg" xmlns:xlink="http://www.w3.org/1999/xlink">
    <!-- Generator: Sketch 48.1 (47250) - http://www.bohemiancoding.com/sketch -->
    <title>menu01</title>
    <desc>Created with Sketch.</desc>
    <defs>
        <linearGradient x1="50%" y1="0%" x2="50%" y2="100%" id="linearGradient-1">
            <stop stop-color="#1D478B" offset="0%"></stop>
            <stop stop-color="#1A457C" offset="100%"></stop>
        </linearGradient>
        <linearGradient x1="50%" y1="0%" x2="50%" y2="100%" id="linearGradient-2">
            <stop stop-color="#6DF5FE" offset="0%"></stop>
            <stop stop-color="#0096E5" offset="100%"></stop>
        </linearGradient>
    </defs>
    <g id="Page-1" stroke="none" stroke-width="1" fill="none" fill-rule="evenodd">
        <g id="menu01" transform="translate(25.000000, 15.000000) scale(-1, 1) translate(-25.000000, -15.000000) translate(1.000000, 1.000000)">
            <g id="Rectangle-3-Copy-5">
                <g id="path-3-link" transform="translate(1.000000, 1.000000)" fill="#000000" fill-rule="nonzero">
                    <polygon id="path-3" points="0 0 45.7291088 0 45.7291088 13.7358491 33.0331754 26 0 26"></polygon>
                </g>
                <g id="path-3-link" transform="translate(1.000000, 1.000000)" fill="url(#linearGradient-1)" fill-opacity="0.7">
                    <polygon id="path-3" points="0 0 45.7291088 0 45.7291088 13.7358491 33.0331754 26 0 26"></polygon>
                </g>
                <polygon id="Shape" stroke="url(#linearGradient-2)" stroke-width="2" points="1 0 0 0 0 1 0 27 0 28 1 28 34.0331754 28 34.4372924 28 34.727946 27.7192314 47.4238795 15.4550804 47.7291088 15.1602318 47.7291088 14.7358491 47.7291088 1 47.7291088 0 46.7291088 0"></polygon>
            </g>
            <g id="Shape" transform="translate(25.500000, 14.000000) rotate(90.000000) translate(-25.500000, -14.000000) translate(18.500000, 7.500000)" fill="#6DF5FE" fill-rule="nonzero">
                <path d="M13.1170379,7.3567015 L0.874471068,7.3567015 C0.391765515,7.3567015 9.08606523e-13,6.88626974 9.08606523e-13,6.30611166 C9.08606523e-13,5.72595359 0.391765515,5.25424311 0.874471068,5.25424311 L13.1170379,5.25424311 C13.5997434,5.25550661 13.9915089,5.72595359 13.9915089,6.30611166 C13.9915089,6.88628496 13.5997434,7.3567015 13.1170379,7.3567015 Z M13.1170379,2.10245839 L0.874471068,2.10245839 C0.391765515,2.10245839 9.08606523e-13,1.63202662 9.08606523e-13,1.05186855 C9.08606523e-13,0.471710482 0.391765515,5.68434189e-14 0.874471068,5.68434189e-14 L13.1170379,5.68434189e-14 C13.5997434,5.68434189e-14 13.9915089,0.470431762 13.9915089,1.05186855 C13.9915089,1.63330534 13.5997434,2.10245839 13.1170379,2.10245839 Z M0.874499214,10.5110132 L13.117066,10.5110132 C13.5997716,10.5110132 13.9915371,10.981445 13.9915371,11.561603 C13.9915371,12.1417611 13.5997716,12.6121929 13.117066,12.6121929 L0.874499214,12.6121929 C0.391793661,12.6121929 2.8146098e-05,12.1417611 2.8146098e-05,11.561603 C2.8146098e-05,10.981445 0.391793661,10.5110132 0.874499214,10.5110132 Z"></path>
            </g>
        </g>
    </g>
</svg>