<?xml version="1.0" encoding="UTF-8" standalone="no"?>
<svg width="24px" height="24px" viewBox="0 0 24 24" version="1.1" xmlns="http://www.w3.org/2000/svg" xmlns:xlink="http://www.w3.org/1999/xlink">
    <!-- Generator: Sketch 48.1 (47250) - http://www.bohemiancoding.com/sketch -->
    <title>list-alt - FontAwesome</title>
    <desc>Created with Sketch.</desc>
    <defs></defs>
    <g id="过程再现" stroke="none" stroke-width="1" fill="none" fill-rule="evenodd" transform="translate(-553.000000, -758.000000)">
        <g id="一企一档" transform="translate(270.000000, 115.000000)" fill="#FFFFFF">
            <g id="Group-Copy-10" transform="translate(271.000000, 632.000000)">
                <g id="list-alt---FontAwesome_export" transform="translate(12.000000, 11.000000)">
                    <path d="M5.14284897,16.857126 L5.14284897,17.7142699 C5.14284897,17.9419487 4.94195587,18.1428418 4.71427703,18.1428418 L3.85713315,18.1428418 C3.62945431,18.1428418 3.42856121,17.9419487 3.42856121,17.7142699 L3.42856121,16.857126 C3.42856121,16.6294472 3.62945431,16.4285541 3.85713315,16.4285541 L4.71427703,16.4285541 C4.94195587,16.4285541 5.14284897,16.6294472 5.14284897,16.857126 Z M5.14284897,13.4285505 L5.14284897,14.2856944 C5.14284897,14.5133732 4.94195587,14.7142663 4.71427703,14.7142663 L3.85713315,14.7142663 C3.62945431,14.7142663 3.42856121,14.5133732 3.42856121,14.2856944 L3.42856121,13.4285505 C3.42856121,13.2008716 3.62945431,12.9999785 3.85713315,12.9999785 L4.71427703,12.9999785 C4.94195587,12.9999785 5.14284897,13.2008716 5.14284897,13.4285505 Z M5.14284897,9.99997497 L5.14284897,10.8571188 C5.14284897,11.0847977 4.94195587,11.2856908 4.71427703,11.2856908 L3.85713315,11.2856908 C3.62945431,11.2856908 3.42856121,11.0847977 3.42856121,10.8571188 L3.42856121,9.99997497 C3.42856121,9.77229612 3.62945431,9.57140303 3.85713315,9.57140303 L4.71427703,9.57140303 C4.94195587,9.57140303 5.14284897,9.77229612 5.14284897,9.99997497 Z M20.5714388,16.857126 L20.5714388,17.7142699 C20.5714388,17.9419487 20.3705457,18.1428418 20.1428668,18.1428418 L7.28570867,18.1428418 C7.05802982,18.1428418 6.85713673,17.9419487 6.85713673,17.7142699 L6.85713673,16.857126 C6.85713673,16.6294472 7.05802982,16.4285541 7.28570867,16.4285541 L20.1428668,16.4285541 C20.3705457,16.4285541 20.5714388,16.6294472 20.5714388,16.857126 Z M20.5714388,13.4285505 L20.5714388,14.2856944 C20.5714388,14.5133732 20.3705457,14.7142663 20.1428668,14.7142663 L7.28570867,14.7142663 C7.05802982,14.7142663 6.85713673,14.5133732 6.85713673,14.2856944 L6.85713673,13.4285505 C6.85713673,13.2008716 7.05802982,12.9999785 7.28570867,12.9999785 L20.1428668,12.9999785 C20.3705457,12.9999785 20.5714388,13.2008716 20.5714388,13.4285505 Z M20.5714388,9.99997497 L20.5714388,10.8571188 C20.5714388,11.0847977 20.3705457,11.2856908 20.1428668,11.2856908 L7.28570867,11.2856908 C7.05802982,11.2856908 6.85713673,11.0847977 6.85713673,10.8571188 L6.85713673,9.99997497 C6.85713673,9.77229612 7.05802982,9.57140303 7.28570867,9.57140303 L20.1428668,9.57140303 C20.3705457,9.57140303 20.5714388,9.77229612 20.5714388,9.99997497 Z M22.2857265,19.4285576 L22.2857265,8.28568721 C22.2857265,8.05800837 22.0848335,7.85711527 21.8571546,7.85711527 L2.14284539,7.85711527 C1.91516655,7.85711527 1.71427345,8.05800837 1.71427345,8.28568721 L1.71427345,19.4285576 C1.71427345,19.6562365 1.91516655,19.8571296 2.14284539,19.8571296 L21.8571546,19.8571296 C22.0848335,19.8571296 22.2857265,19.6562365 22.2857265,19.4285576 Z M24.0000143,4.85711169 L24.0000143,19.4285576 C24.0000143,20.6071305 23.0357274,21.5714173 21.8571546,21.5714173 L2.14284539,21.5714173 C0.964272559,21.5714173 -1.43051147e-05,20.6071305 -1.43051147e-05,19.4285576 L-1.43051147e-05,4.85711169 C-1.43051147e-05,3.67853886 0.964272559,2.714252 2.14284539,2.714252 L21.8571546,2.714252 C23.0357274,2.714252 24.0000143,3.67853886 24.0000143,4.85711169 Z" id="list-alt---FontAwesome"></path>
                </g>
            </g>
        </g>
    </g>
</svg>