<?xml version="1.0" encoding="UTF-8" standalone="no"?>
<svg width="24px" height="24px" viewBox="0 0 24 24" version="1.1" xmlns="http://www.w3.org/2000/svg" xmlns:xlink="http://www.w3.org/1999/xlink">
    <!-- Generator: Sketch 48.1 (47250) - http://www.bohemiancoding.com/sketch -->
    <title>microphone - FontAwesome</title>
    <desc>Created with Sketch.</desc>
    <defs></defs>
    <g id="过程再现" stroke="none" stroke-width="1" fill="none" fill-rule="evenodd" transform="translate(-552.000000, -326.000000)">
        <g id="一企一档" transform="translate(270.000000, 115.000000)" fill="#FFFFFF">
            <g id="Group-Copy" transform="translate(271.000000, 200.000000)">
                <g id="microphone---FontAwesome_export" transform="translate(11.000000, 11.000000)">
                    <path d="M20,10.1538462 L20,12 C20,16.2692308 16.8888889,19.7884615 12.8888889,20.25 L12.8888889,22.1538462 L16.4444444,22.1538462 C16.9305556,22.1538462 17.3333333,22.5721154 17.3333333,23.0769231 C17.3333333,23.5817308 16.9305556,24 16.4444444,24 L7.55555556,24 C7.06944444,24 6.66666667,23.5817308 6.66666667,23.0769231 C6.66666667,22.5721154 7.06944444,22.1538462 7.55555556,22.1538462 L11.1111111,22.1538462 L11.1111111,20.25 C7.11111111,19.7884615 4,16.2692308 4,12 L4,10.1538462 C4,9.64903846 4.40277778,9.23076923 4.88888889,9.23076923 C5.375,9.23076923 5.77777778,9.64903846 5.77777778,10.1538462 L5.77777778,12 C5.77777778,15.5625 8.56944444,18.4615385 12,18.4615385 C15.4305556,18.4615385 18.2222222,15.5625 18.2222222,12 L18.2222222,10.1538462 C18.2222222,9.64903846 18.625,9.23076923 19.1111111,9.23076923 C19.5972222,9.23076923 20,9.64903846 20,10.1538462 Z M16.4444444,4.61538462 L16.4444444,12 C16.4444444,14.5384615 14.4444444,16.6153846 12,16.6153846 C9.55555556,16.6153846 7.55555556,14.5384615 7.55555556,12 L7.55555556,4.61538462 C7.55555556,2.07692308 9.55555556,0 12,0 C14.4444444,0 16.4444444,2.07692308 16.4444444,4.61538462 Z" id="microphone---FontAwesome"></path>
                </g>
            </g>
        </g>
    </g>
</svg>