<?xml version="1.0" encoding="UTF-8" standalone="no"?>
<svg width="24px" height="24px" viewBox="0 0 24 24" version="1.1" xmlns="http://www.w3.org/2000/svg" xmlns:xlink="http://www.w3.org/1999/xlink">
    <!-- Generator: Sketch 48.1 (47250) - http://www.bohemiancoding.com/sketch -->
    <title>retweet - FontAwesome</title>
    <desc>Created with Sketch.</desc>
    <defs></defs>
    <g id="过程再现" stroke="none" stroke-width="1" fill="none" fill-rule="evenodd" transform="translate(-552.000000, -495.000000)">
        <g id="一企一档" transform="translate(270.000000, 115.000000)" fill="#FFFFFF">
            <g id="Group-Copy-6" transform="translate(271.000000, 368.000000)">
                <g id="retweet---FontAwesome_export" transform="translate(11.000000, 12.000000)">
                    <path d="M16,18.6111111 C16,18.8177083 15.8125,19 15.6,19 L3.6,19 C3.1375,19 3.2,18.5260417 3.2,18.2222222 L3.2,11.2222222 L0.8,11.2222222 C0.3625,11.2222222 0,10.8697917 0,10.4444444 C0,10.2621528 0.0625,10.0798611 0.1875,9.94618056 L4.1875,5.27951389 C4.3375,5.109375 4.5625,5.01215278 4.8,5.01215278 C5.0375,5.01215278 5.2625,5.109375 5.4125,5.27951389 L9.4125,9.94618056 C9.5375,10.0798611 9.6,10.2621528 9.6,10.4444444 C9.6,10.8697917 9.2375,11.2222222 8.8,11.2222222 L6.4,11.2222222 L6.4,15.8888889 L13.6,15.8888889 C13.7125,15.8888889 13.8375,15.9375 13.9125,16.0225694 L15.9125,18.3559028 C15.9625,18.4288194 16,18.5260417 16,18.6111111 Z M24,13.5555556 C24,13.7378472 23.9375,13.9201389 23.8125,14.0538194 L19.8125,18.7204861 C19.6625,18.890625 19.4375,19 19.2,19 C18.9625,19 18.7375,18.890625 18.5875,18.7204861 L14.5875,14.0538194 C14.4625,13.9201389 14.4,13.7378472 14.4,13.5555556 C14.4,13.1302083 14.7625,12.7777778 15.2,12.7777778 L17.6,12.7777778 L17.6,8.11111111 L10.4,8.11111111 C10.2875,8.11111111 10.1625,8.0625 10.0875,7.96527778 L8.0875,5.63194444 C8.0375,5.57118056 8,5.47395833 8,5.38888889 C8,5.18229167 8.1875,5 8.4,5 L20.4,5 C20.8625,5 20.8,5.47395833 20.8,5.77777778 L20.8,12.7777778 L23.2,12.7777778 C23.6375,12.7777778 24,13.1302083 24,13.5555556 Z" id="retweet---FontAwesome"></path>
                </g>
            </g>
        </g>
    </g>
</svg>