<?xml version="1.0" encoding="UTF-8" standalone="no"?>
<svg width="24px" height="24px" viewBox="0 0 24 24" version="1.1" xmlns="http://www.w3.org/2000/svg" xmlns:xlink="http://www.w3.org/1999/xlink">
    <!-- Generator: Sketch 48.1 (47250) - http://www.bohemiancoding.com/sketch -->
    <title>Stack Exchange - FontAwesome</title>
    <desc>Created with Sketch.</desc>
    <defs></defs>
    <g id="过程再现" stroke="none" stroke-width="1" fill="none" fill-rule="evenodd" transform="translate(-552.000000, -826.000000)">
        <g id="一企一档" transform="translate(270.000000, 115.000000)" fill="#FFFFFF">
            <g id="Group-Copy-11" transform="translate(271.000000, 698.000000)">
                <g id="Stack-Exchange---FontAwesome_export" transform="translate(11.000000, 13.000000)">
                    <path d="M20.5714388,15.9240904 L20.5714388,16.80802 C20.5714388,18.3214146 19.392866,19.5401661 17.9464357,19.5401661 L17.1830419,19.5401661 L13.7008949,23.142849 L13.7008949,19.5401661 L6.61606501,19.5401661 C5.16963471,19.5401661 3.99106188,18.3214146 3.99106188,16.80802 L3.99106188,15.9240904 L20.5714388,15.9240904 Z M20.5714388,11.5580137 L20.5714388,14.9731964 L3.99106188,14.9731964 L3.99106188,11.5580137 L20.5714388,11.5580137 Z M20.5714388,7.16515135 L20.5714388,10.580334 L3.99106188,10.580334 L3.99106188,7.16515135 L20.5714388,7.16515135 Z M20.5714388,5.29014912 L20.5714388,6.18747161 L3.99106188,6.18747161 L3.99106188,5.29014912 C3.99106188,3.79014733 5.16963471,2.57139587 6.61606501,2.57139587 L17.9464357,2.57139587 C19.392866,2.57139587 20.5714388,3.79014733 20.5714388,5.29014912 Z" id="Stack-Exchange---FontAwesome"></path>
                </g>
            </g>
        </g>
    </g>
</svg>