<?xml version="1.0" encoding="UTF-8" standalone="no"?>
<svg width="24px" height="24px" viewBox="0 0 24 24" version="1.1" xmlns="http://www.w3.org/2000/svg" xmlns:xlink="http://www.w3.org/1999/xlink">
    <!-- Generator: Sketch 48.1 (47250) - http://www.bohemiancoding.com/sketch -->
    <title>Line Chart - FontAwesome</title>
    <desc>Created with Sketch.</desc>
    <defs></defs>
    <g id="过程再现" stroke="none" stroke-width="1" fill="none" fill-rule="evenodd" transform="translate(-553.000000, -560.000000)">
        <g id="一企一档" transform="translate(270.000000, 115.000000)" fill="#FFFFFF">
            <g id="Group-Copy-7" transform="translate(271.000000, 434.000000)">
                <g id="Line-Chart---FontAwesome_export" transform="translate(12.000000, 11.000000)">
                    <path d="M23.4285851,19.4285612 L23.4285851,20.8571343 L0.571414948,20.8571343 L0.571414948,3.71425676 L1.99998808,3.71425676 L1.99998808,19.4285612 L23.4285851,19.4285612 Z M22.0000119,5.49997318 L22.0000119,10.3548897 C22.0000119,10.6673901 21.6205472,10.834801 21.3861719,10.6004257 L20.0357239,9.24997765 L12.9709833,16.3147182 C12.8258938,16.4598077 12.6026793,16.4598077 12.4575898,16.3147182 L9.8571403,13.7142687 L5.21427763,18.3571314 L3.07141793,16.2142717 L9.60044357,9.68524602 C9.74553303,9.54015657 9.96874758,9.54015657 10.113837,9.68524602 L12.7142866,12.2856956 L17.8928642,7.10711795 L16.5424161,5.75666991 C16.3080408,5.52229463 16.4754518,5.1428299 16.7879521,5.1428299 L21.6428686,5.1428299 C21.8437617,5.1428299 22.0000119,5.29908008 22.0000119,5.49997318 Z" id="Line-Chart---FontAwesome"></path>
                </g>
            </g>
        </g>
    </g>
</svg>