<?xml version="1.0" encoding="UTF-8" standalone="no"?>
<svg width="24px" height="24px" viewBox="0 0 24 24" version="1.1" xmlns="http://www.w3.org/2000/svg" xmlns:xlink="http://www.w3.org/1999/xlink">
    <!-- Generator: Sketch 48.1 (47250) - http://www.bohemiancoding.com/sketch -->
    <title>Star - FontAwesome</title>
    <desc>Created with Sketch.</desc>
    <defs></defs>
    <g id="过程再现" stroke="none" stroke-width="1" fill="none" fill-rule="evenodd" transform="translate(-553.000000, -889.000000)">
        <g id="一企一档" transform="translate(270.000000, 115.000000)" fill="#FFFFFF">
            <g id="Group-Copy-12" transform="translate(271.000000, 764.000000)">
                <g id="Star---FontAwesome_export" transform="translate(12.000000, 10.000000)">
                    <path d="M23.1428704,9.466491 C23.1428704,9.70756271 22.9687631,9.93524155 22.7946557,10.1093489 L17.9330428,14.850426 L19.0848299,21.5468625 C19.0982227,21.6406127 19.0982227,21.7209699 19.0982227,21.81472 C19.0982227,22.1629347 18.9375083,22.4843637 18.549115,22.4843637 C18.3616147,22.4843637 18.1741145,22.4173993 18.0134,22.3236492 L12,19.1629311 L5.98659997,22.3236492 C5.81249262,22.4173993 5.63838527,22.4843637 5.45088505,22.4843637 C5.06249173,22.4843637 4.88838438,22.1629347 4.88838438,21.81472 C4.88838438,21.7209699 4.90177725,21.6406127 4.91517013,21.5468625 L6.06695721,14.850426 L1.1919514,10.1093489 C1.03123692,9.93524155 0.857129574,9.70756271 0.857129574,9.466491 C0.857129574,9.0647048 1.27230864,8.90399032 1.60713047,8.85041883 L8.33035277,7.8727391 L11.3437492,1.77898183 C11.4642851,1.52451724 11.6919639,1.22987403 12,1.22987403 C12.3080361,1.22987403 12.5357149,1.52451724 12.6562508,1.77898183 L15.6696472,7.8727391 L22.3928695,8.85041883 C22.7142985,8.90399032 23.1428704,9.0647048 23.1428704,9.466491 Z" id="Star---FontAwesome"></path>
                </g>
            </g>
        </g>
    </g>
</svg>